<?xml version="1.0" encoding="UTF-8"?>
<svg xmlns="http://www.w3.org/2000/svg" viewBox="0 0 1938 972">
  <defs>
    <style>
      .cls-1, .cls-2, .cls-3, .cls-4, .cls-5, .cls-6 {
        fill: none;
      }

      .cls-1, .cls-2, .cls-3, .cls-5, .cls-7, .cls-6 {
        stroke-miterlimit: 10;
      }

      .cls-1, .cls-2, .cls-5, .cls-7, .cls-6 {
        stroke: #231f20;
      }

      .cls-8 {
        opacity: .85;
      }

      .cls-8, .cls-9, .cls-4, .cls-10, .cls-11 {
        stroke-width: 0px;
      }

      .cls-8, .cls-10 {
        fill: #fff;
      }

      .cls-12 {
        font-family: OCRAExtended, 'OCR A Extended';
        font-size: 20px;
      }

      .cls-12, .cls-7, .cls-11 {
        fill: #231f20;
      }

      .cls-2 {
        stroke-width: 3px;
      }

      .cls-3 {
        stroke: #ec1e24;
      }

      .cls-3, .cls-5 {
        stroke-width: 20px;
      }

      .cls-5 {
        opacity: .15;
      }

      .cls-7 {
        stroke-width: .25px;
      }

      .cls-6 {
        stroke-width: .5px;
      }

      .cls-13 {
        opacity: .25;
      }
    </style>
  </defs>
  <g id="MINI_GAME_WHITE" data-name="MINI GAME WHITE">
    <rect class="cls-8" x="-.1" width="1938.1" height="972"/>
    <rect class="cls-10" x="645.06" y="180.61" width="645.27" height="610.59"/>
  </g>
  <g id="_grid" data-name="#grid">
    <g class="cls-13">
      <g>
        <line class="cls-6" x1="465.42" y1="88.54" x2="465.42" y2="883.46"/>
        <line class="cls-6" x1="501.35" y1="88.54" x2="501.35" y2="883.46"/>
        <line class="cls-6" x1="537.28" y1="88.54" x2="537.28" y2="883.46"/>
        <line class="cls-6" x1="573.2" y1="88.54" x2="573.2" y2="883.46"/>
        <line class="cls-6" x1="609.13" y1="88.54" x2="609.13" y2="883.46"/>
        <line class="cls-6" x1="645.06" y1="88.54" x2="645.06" y2="883.46"/>
        <line class="cls-6" x1="680.99" y1="88.54" x2="680.99" y2="883.46"/>
        <line class="cls-6" x1="716.92" y1="88.54" x2="716.92" y2="883.46"/>
        <line class="cls-6" x1="752.84" y1="88.54" x2="752.84" y2="883.46"/>
        <line class="cls-6" x1="788.77" y1="88.54" x2="788.77" y2="883.46"/>
        <line class="cls-6" x1="824.7" y1="88.54" x2="824.7" y2="883.46"/>
        <line class="cls-6" x1="860.63" y1="88.54" x2="860.63" y2="883.46"/>
        <line class="cls-6" x1="896.56" y1="88.54" x2="896.56" y2="883.46"/>
        <line class="cls-6" x1="932.48" y1="88.54" x2="932.48" y2="883.46"/>
        <line class="cls-6" x1="968.41" y1="88.54" x2="968.41" y2="883.46"/>
        <line class="cls-6" x1="1004.34" y1="88.54" x2="1004.34" y2="883.46"/>
        <line class="cls-6" x1="1040.27" y1="88.54" x2="1040.27" y2="883.46"/>
        <line class="cls-6" x1="1076.2" y1="88.54" x2="1076.2" y2="883.46"/>
        <line class="cls-6" x1="1112.13" y1="88.54" x2="1112.13" y2="883.46"/>
        <line class="cls-6" x1="1148.05" y1="88.54" x2="1148.05" y2="883.46"/>
      </g>
      <g>
        <line class="cls-6" x1="1182.83" y1="88.54" x2="1182.83" y2="883.46"/>
        <line class="cls-6" x1="1218.76" y1="88.54" x2="1218.76" y2="883.46"/>
        <line class="cls-6" x1="1254.69" y1="88.54" x2="1254.69" y2="883.46"/>
        <line class="cls-6" x1="1290.61" y1="88.54" x2="1290.61" y2="883.46"/>
        <line class="cls-6" x1="1326.54" y1="88.54" x2="1326.54" y2="883.46"/>
        <line class="cls-6" x1="1362.47" y1="88.54" x2="1362.47" y2="883.46"/>
        <line class="cls-6" x1="1398.4" y1="88.54" x2="1398.4" y2="883.46"/>
        <line class="cls-6" x1="1434.33" y1="88.54" x2="1434.33" y2="883.46"/>
        <line class="cls-6" x1="1470.25" y1="88.54" x2="1470.25" y2="883.46"/>
      </g>
      <g>
        <line class="cls-6" x1="432.67" y1="827.32" x2="1505.33" y2="827.32"/>
        <line class="cls-6" x1="432.67" y1="791.39" x2="1505.33" y2="791.39"/>
        <line class="cls-6" x1="432.67" y1="755.46" x2="1505.33" y2="755.46"/>
        <line class="cls-6" x1="432.67" y1="719.53" x2="1505.33" y2="719.53"/>
        <line class="cls-6" x1="432.67" y1="683.6" x2="1505.33" y2="683.6"/>
        <line class="cls-6" x1="432.67" y1="647.68" x2="1505.33" y2="647.68"/>
        <line class="cls-6" x1="432.67" y1="611.75" x2="1505.33" y2="611.75"/>
        <line class="cls-6" x1="432.67" y1="575.82" x2="1505.33" y2="575.82"/>
        <line class="cls-6" x1="432.67" y1="539.89" x2="1505.33" y2="539.89"/>
        <line class="cls-6" x1="432.67" y1="503.96" x2="1505.33" y2="503.96"/>
        <line class="cls-6" x1="432.67" y1="468.04" x2="1505.33" y2="468.04"/>
        <line class="cls-6" x1="432.67" y1="432.11" x2="1505.33" y2="432.11"/>
        <line class="cls-6" x1="432.67" y1="396.18" x2="1505.33" y2="396.18"/>
        <line class="cls-6" x1="432.67" y1="360.25" x2="1505.33" y2="360.25"/>
        <line class="cls-6" x1="432.67" y1="324.32" x2="1505.33" y2="324.32"/>
        <line class="cls-6" x1="432.67" y1="288.39" x2="1505.33" y2="288.4"/>
        <line class="cls-6" x1="432.67" y1="252.47" x2="1505.33" y2="252.47"/>
        <line class="cls-6" x1="432.67" y1="216.54" x2="1505.33" y2="216.54"/>
        <line class="cls-6" x1="432.67" y1="180.61" x2="1505.33" y2="180.61"/>
        <line class="cls-6" x1="432.67" y1="144.68" x2="1505.33" y2="144.68"/>
      </g>
    </g>
  </g>
  <g id="_anchor" data-name="#anchor">
    <circle class="cls-7" cx="969" cy="486" r="9.21"/>
  </g>
  <g id="_lever" data-name="@lever">
    <rect class="cls-7" x="965.76" y="330.26" width="6.38" height="155.65"/>
  </g>
  <g id="_meterbase" data-name="#meterbase">
    <circle class="cls-5" cx="965.59" cy="485.92" r="122.68"/>
  </g>
  <g id="meterdesign">
    <g>
      <path class="cls-9" d="m1074.69,668.11c-1.75,1.09-3.23,2.03-5.35,3.35-2.9-4.97-5.65-9.64-8.36-14.33-3.42-5.91-6.98-11.75-10.11-17.82-.66-1.29.3-3.42.51-5.16,1.64.7,4.04.93,4.79,2.16,6.28,10.38,12.25,20.94,18.52,31.8Z"/>
      <path class="cls-9" d="m780.44,382.57c1.18-2,2-3.4,3.15-5.35,3.58,2.02,7,3.91,10.38,5.86,7.2,4.15,14.47,8.2,21.51,12.61,1.23.77,1.47,3.13,2.17,4.76-1.75.21-3.93,1.2-5.18.51-10.6-5.85-21.03-12.01-32.03-18.38Z"/>
      <path class="cls-9" d="m856.99,303.78c1.93-1.18,3.44-2.09,5.43-3.31,4.99,8.64,9.8,16.95,14.61,25.26,1.25,2.16,2.92,4.19,3.63,6.52.51,1.66-.27,3.71-.47,5.59-1.62-.76-3.96-1.08-4.73-2.35-6.19-10.25-12.09-20.67-18.47-31.71Z"/>
      <path class="cls-9" d="m1148.08,594.85c-11-6.35-21.66-12.37-32.12-18.7-1.16-.7-1.24-3.19-1.82-4.84,1.62-.2,3.64-1.12,4.79-.48,10.7,5.94,21.25,12.15,32.29,18.54-1.12,1.96-2.05,3.58-3.14,5.49Z"/>
      <path class="cls-9" d="m862.48,671.38c-1.95-1.15-3.46-2.03-5.44-3.2,4.96-8.63,9.73-16.94,14.51-25.24,1.41-2.45,2.57-5.12,4.38-7.22.9-1.04,3.02-1.01,4.59-1.47.28,1.49,1.28,3.4.72,4.42-6.03,10.85-12.31,21.56-18.75,32.71Z"/>
      <path class="cls-9" d="m1148.06,377.13c1.21,2.03,2.03,3.42,3.16,5.31-3.63,2.17-6.97,4.21-10.36,6.18-7.03,4.09-14.01,8.29-21.2,12.08-1.43.76-3.73-.12-5.63-.25.83-1.71,1.2-4.19,2.57-5.02,10.2-6.18,20.59-12.04,31.47-18.31Z"/>
      <path class="cls-9" d="m783.58,594.77c-1.08-1.85-1.97-3.37-3.12-5.33,7.71-4.49,15.12-8.82,22.53-13.13,3.3-1.92,6.53-3.99,9.98-5.58,1.11-.51,2.84.33,4.29.56-.28,1.5-.44,3.04-.9,4.49-.15.49-1.03.77-1.6,1.1-10.2,5.86-20.4,11.7-31.18,17.89Z"/>
      <path class="cls-9" d="m1074.77,303.71c-6.53,11.11-12.68,21.74-19.1,32.21-.67,1.09-2.96,1.2-4.5,1.76-.27-1.47-1.26-3.35-.7-4.36,6.04-10.88,12.33-21.62,18.76-32.75,1.9,1.08,3.44,1.95,5.53,3.14Z"/>
      <path class="cls-9" d="m1177.88,482.88v6.18c-8.99,0-17.73,0-26.48,0-3.49,0-7.01.25-10.45-.16-1.42-.17-2.66-1.78-3.99-2.73,1.36-1.1,2.7-3.12,4.09-3.15,12.1-.25,24.21-.14,36.83-.14Z"/>
      <path class="cls-9" d="m962.83,274.06h6.16c0,4.32,0,8.58,0,12.85-.01,8,.11,16-.17,23.99-.05,1.35-1.82,2.63-2.79,3.94-1.06-1.04-3.04-2.06-3.05-3.12-.22-12.45-.14-24.9-.14-37.66Z"/>
      <path class="cls-9" d="m753.89,488.99c-.1-2.08-.18-3.66-.3-6.13,3.93,0,7.5,0,11.07,0,8.62,0,17.25-.13,25.86.16,1.43.05,2.8,1.95,4.2,3-1.1.99-2.19,2.83-3.3,2.84-12.39.21-24.79.13-37.53.13Z"/>
      <path class="cls-9" d="m968.93,697.94h-6.16c0-8.68,0-17.12,0-25.57,0-3.83-.25-7.69.16-11.48.15-1.36,1.91-2.54,2.93-3.8,1.02,1.27,2.9,2.52,2.92,3.8.23,12.13.13,24.27.13,37.04Z"/>
      <path class="cls-9" d="m1093.19,655.87c-1.94,1.36-3.37,2.36-5.2,3.65-3.33-4.63-6.58-8.79-9.35-13.26-.67-1.09.23-3.15.41-4.77,1.57.46,3.73.43,4.6,1.47,3.27,3.93,6.13,8.2,9.55,12.91Z"/>
      <path class="cls-9" d="m1139.47,608.19c-1.37,1.85-2.43,3.27-3.77,5.07-4.54-3.3-8.93-6.24-12.97-9.6-1.01-.84-.9-3.03-1.3-4.6,1.64-.11,3.71-.9,4.85-.2,4.47,2.79,8.64,6.05,13.2,9.33Z"/>
      <path class="cls-9" d="m1054.99,678.57c-1.96.91-3.54,1.65-5.61,2.6-2.3-5.13-4.64-9.86-6.46-14.79-.47-1.26.72-3.14,1.15-4.74,1.47.69,3.67,1,4.27,2.15,2.43,4.66,4.38,9.59,6.66,14.77Z"/>
      <path class="cls-9" d="m1121.43,341.58c1.54,1.74,2.72,3.06,4.25,4.79-4.31,3.83-8.27,7.58-12.53,10.95-.89.7-2.9,0-4.39-.07.13-1.49-.32-3.54.49-4.37,3.7-3.8,7.75-7.26,12.18-11.31Z"/>
      <path class="cls-9" d="m882.44,681.1c-1.97-.81-3.48-1.42-5.85-2.4,2.46-5.39,4.69-10.64,7.3-15.7.45-.87,3.15-1.65,3.61-1.22.97.92,1.91,2.97,1.5,4.05-1.91,5.11-4.27,10.05-6.56,15.26Z"/>
      <path class="cls-9" d="m1166.85,417.44c.78,2.4,1.24,3.78,1.93,5.9-5.51,1.76-10.75,3.61-16.11,4.99-1.06.27-3.03-.97-3.7-2.06-.38-.61.77-3.07,1.71-3.43,5.2-1.98,10.54-3.57,16.18-5.41Z"/>
      <path class="cls-9" d="m1176.65,460.79c.17,2.29.3,3.89.46,6.07-5.64.62-11,1.39-16.38,1.67-1.16.06-2.42-1.64-3.63-2.54,1.09-1.21,2.03-3.28,3.29-3.49,5.18-.86,10.45-1.15,16.27-1.71Z"/>
      <path class="cls-9" d="m1055.01,293.43c-2.37,5.35-4.15,10.01-6.51,14.36-.69,1.26-2.99,1.65-4.56,2.44-.37-1.61-1.46-3.49-.98-4.78,1.77-4.8,4.05-9.4,6.38-14.62,1.95.9,3.64,1.68,5.67,2.61Z"/>
      <path class="cls-9" d="m1121.41,630.33c-4.42-4.01-8.25-7.2-11.68-10.77-.95-.99-.73-3.1-1.05-4.7,1.74.06,4.01-.55,5.13.32,4.04,3.11,7.69,6.71,11.82,10.43-1.51,1.69-2.76,3.09-4.22,4.73Z"/>
      <path class="cls-9" d="m882.31,290.67c2.33,5.23,4.64,9.83,6.36,14.64.49,1.36-.75,3.33-1.19,5.01-1.51-.93-3.7-1.5-4.42-2.86-2.33-4.37-4.11-9.03-6.29-13.99,1.72-.88,3.28-1.67,5.54-2.81Z"/>
      <path class="cls-9" d="m1110.24,641.59c-1.76,1.56-2.97,2.64-4.7,4.18-3.84-4.3-7.68-8.33-11.13-12.66-.66-.82.21-2.86.37-4.34,1.48.22,3.48-.08,4.34.77,3.76,3.69,7.19,7.73,11.11,12.05Z"/>
      <path class="cls-9" d="m770.7,402.51c.92-2.11,1.58-3.6,2.51-5.74,5.28,2.37,10.45,4.5,15.39,7.07.96.5,1.03,2.71,1.51,4.12-1.45.41-3.16,1.53-4.29,1.1-4.96-1.87-9.76-4.18-15.11-6.55Z"/>
      <path class="cls-9" d="m826.24,645.79c-1.73-1.53-3.06-2.71-4.76-4.21,3.77-4.15,7.17-8.21,10.96-11.88.95-.92,3.12-.56,4.74-.79-.05,1.62.55,3.74-.25,4.76-3.26,4.14-6.94,7.95-10.68,12.11Z"/>
      <path class="cls-9" d="m1135.65,358.72c1.33,1.74,2.41,3.15,3.86,5.04-4.67,3.35-8.99,6.68-13.57,9.58-1,.64-2.95-.22-4.46-.38.36-1.58.19-3.8,1.19-4.64,3.94-3.3,8.24-6.16,12.99-9.6Z"/>
      <path class="cls-9" d="m940.66,696.8c.54-5.77.78-10.89,1.66-15.91.24-1.39,2.39-2.44,3.67-3.65.84,1.42,2.43,2.87,2.37,4.25-.21,5.09-.97,10.15-1.58,15.71-2.08-.14-3.82-.25-6.12-.4Z"/>
      <path class="cls-9" d="m810.25,341.56c4.2,3.8,8.04,6.97,11.44,10.55,1.05,1.1.9,3.35,1.29,5.07-1.74-.11-3.99.42-5.14-.46-4.03-3.1-7.68-6.7-11.76-10.35,1.48-1.72,2.64-3.06,4.16-4.81Z"/>
      <path class="cls-9" d="m1158.55,396.79c.9,2.12,1.54,3.62,2.41,5.68-5.13,2.29-10.02,4.67-15.08,6.6-1.11.43-2.83-.72-4.27-1.14.63-1.49.85-3.77,1.96-4.35,4.68-2.46,9.62-4.42,14.98-6.79Z"/>
      <path class="cls-9" d="m843.64,312.36c3.37,4.66,6.63,8.82,9.4,13.27.69,1.11-.19,3.19-.35,4.83-1.58-.47-3.76-.44-4.64-1.49-3.28-3.93-6.13-8.21-9.45-12.77,1.64-1.25,3.13-2.39,5.03-3.84Z"/>
      <path class="cls-9" d="m1177.25,505.09c-.27,2.26-.46,3.86-.71,6.03-5.62-.53-11.03-.87-16.35-1.68-1.18-.18-2.09-2.05-3.13-3.14,1.29-.98,2.61-2.84,3.86-2.79,5.24.19,10.45.96,16.34,1.59Z"/>
      <path class="cls-9" d="m940.67,275.17c2.28-.17,3.75-.29,6.09-.47.59,5.68,1.34,11.21,1.59,16.77.05,1.04-1.88,2.17-2.9,3.26-1.08-1.08-2.92-2.04-3.1-3.25-.81-5.22-1.13-10.52-1.69-16.31Z"/>
      <path class="cls-9" d="m754.59,466.88c.18-2.28.31-3.87.49-6.06,5.72.55,11.16.9,16.52,1.73,1.14.18,1.99,2.14,2.98,3.28-1.33.93-2.7,2.71-4,2.66-5.13-.2-10.23-.98-15.99-1.61Z"/>
      <path class="cls-9" d="m821.48,330.39c1.7-1.52,3.03-2.71,4.72-4.22,3.74,4.16,7.43,7.96,10.7,12.11.81,1.03.22,3.15.27,4.77-1.61-.23-3.78.12-4.74-.79-3.71-3.57-7.02-7.54-10.95-11.87Z"/>
      <path class="cls-9" d="m763.03,423.34c.64-2.08,1.12-3.61,1.83-5.92,5.5,1.78,10.85,3.34,16.01,5.35,1.02.4,1.35,2.56,2,3.91-1.37.58-2.94,1.92-4.07,1.63-5.24-1.38-10.35-3.21-15.77-4.96Z"/>
      <path class="cls-9" d="m1034.4,686.89c-2.21.76-3.73,1.28-5.9,2.02-1.73-5.41-3.53-10.5-4.89-15.72-.31-1.18.93-2.77,1.46-4.16,1.42.76,3.65,1.2,4.11,2.35,1.96,4.87,3.4,9.96,5.21,15.51Z"/>
      <path class="cls-9" d="m1166.76,554.54c-5.57-1.83-10.76-3.36-15.78-5.34-1.05-.41-1.44-2.49-2.14-3.8,1.35-.61,2.89-2,4.01-1.71,5.23,1.34,10.34,3.15,15.93,4.93-.72,2.11-1.28,3.74-2.03,5.93Z"/>
      <path class="cls-9" d="m773.27,575.12c-.95-2.02-1.63-3.49-2.64-5.63,5.31-2.32,10.33-4.71,15.53-6.64,1.04-.39,2.73.98,4.11,1.54-.65,1.36-.95,3.4-2.02,3.95-4.7,2.42-9.61,4.4-14.99,6.78Z"/>
      <path class="cls-9" d="m1160.93,569.41c-.8,1.99-1.4,3.49-2.34,5.83-5.41-2.46-10.65-4.69-15.71-7.28-.86-.44-1.63-3.19-1.21-3.59.98-.94,2.99-1.87,4.08-1.46,5.07,1.88,9.98,4.22,15.18,6.5Z"/>
      <path class="cls-9" d="m792.27,363.79c1.38-1.88,2.42-3.29,3.72-5.06,4.53,3.26,8.92,6.16,12.95,9.5,1.03.85.93,3.07,1.35,4.67-1.65.11-3.73.93-4.86.22-4.45-2.78-8.6-6.03-13.16-9.33Z"/>
      <path class="cls-9" d="m1105.52,326.13c1.81,1.67,3.09,2.85,4.67,4.31-3.81,4.22-7.2,8.27-10.98,11.92-.91.88-3.11.44-4.72.6.1-1.63-.41-3.75.42-4.81,3.14-4.02,6.72-7.69,10.6-12.02Z"/>
      <path class="cls-9" d="m838.5,655.87c3.46-4.74,6.33-9.02,9.62-12.95.86-1.03,3.03-.95,4.6-1.38.14,1.64,1,3.72.3,4.84-2.7,4.35-5.88,8.39-9.25,13.05-1.75-1.18-3.29-2.23-5.28-3.56Z"/>
      <path class="cls-9" d="m897.3,285.03c2.28-.77,3.8-1.28,5.95-2,1.77,5.59,3.61,10.86,4.98,16.25.26,1.01-1.35,2.49-2.09,3.76-1.26-.82-3.21-1.37-3.65-2.52-1.91-4.89-3.38-9.95-5.18-15.49Z"/>
      <path class="cls-9" d="m1172.77,438.77c.51,2.1.9,3.68,1.46,6-5.8,1.24-11.36,2.58-16.99,3.5-.93.15-2.86-1.37-3.05-2.36-.19-.99,1.02-3.05,1.98-3.32,5.38-1.48,10.87-2.55,16.6-3.82Z"/>
      <path class="cls-9" d="m754.93,511.17v-6.1c5.43-.59,10.67-1.33,15.94-1.59,1.19-.06,2.46,1.59,3.69,2.45-1.07,1.23-1.99,3.32-3.22,3.52-5.2.86-10.49,1.15-16.41,1.72Z"/>
      <path class="cls-9" d="m924.69,694.22c-2.23-.49-3.9-.86-5.99-1.32,1.19-5.6,2.08-10.79,3.51-15.83.35-1.23,2.47-1.96,3.77-2.92.73,1.45,2.26,3.02,2.06,4.33-.76,5.04-2.08,10-3.35,15.74Z"/>
      <path class="cls-9" d="m991.03,696.75c-2.26.2-3.88.34-6.05.53-.61-5.71-1.38-11.11-1.63-16.53-.05-1.13,1.75-2.35,2.7-3.54,1.13,1,3.07,1.88,3.26,3.03.83,5.23,1.16,10.55,1.74,16.51Z"/>
      <path class="cls-9" d="m897.26,687.05c1.87-5.73,3.3-10.81,5.27-15.67.46-1.14,2.71-1.56,4.13-2.32.53,1.4,1.77,2.97,1.47,4.16-1.25,4.96-2.97,9.79-4.75,15.42-1.87-.48-3.61-.93-6.12-1.58Z"/>
      <path class="cls-9" d="m990.98,275.17c-.54,5.82-.87,11.25-1.69,16.6-.17,1.12-2.14,1.97-3.29,2.95-.92-1.34-2.66-2.71-2.62-4.01.19-5.11.94-10.21,1.51-15.54h6.08Z"/>
      <path class="cls-9" d="m757.6,444.84c.49-2.21.86-3.89,1.35-6.11,5.69,1.27,11.01,2.27,16.2,3.74,1.09.31,1.7,2.33,2.53,3.56-1.28.77-2.68,2.34-3.81,2.17-5.33-.83-10.58-2.14-16.28-3.37Z"/>
      <path class="cls-9" d="m810.26,630.37c-1.4-1.83-2.38-3.11-3.68-4.8,3.85-3.6,7.4-7.25,11.36-10.4,1.09-.87,3.39-.23,5.13-.28-.33,1.61-.12,3.74-1.08,4.73-3.55,3.65-7.49,6.93-11.73,10.75Z"/>
      <path class="cls-9" d="m1006.98,277.7c2.22.46,3.8.79,6.01,1.26-1.19,5.65-2.15,11-3.57,16.23-.3,1.1-2.33,1.73-3.56,2.58-.77-1.28-2.33-2.68-2.16-3.82.78-5.23,2.05-10.39,3.28-16.25Z"/>
      <path class="cls-9" d="m1088.07,312.73c1.77,1.33,3.05,2.3,4.67,3.51-2.92,4.18-5.46,8.27-8.5,11.95-1.01,1.22-3.28,1.41-4.97,2.07-.05-1.77-.8-3.97-.03-5.22,2.59-4.2,5.72-8.07,8.83-12.31Z"/>
      <path class="cls-9" d="m765.1,554.49c-.82-2.07-1.41-3.55-2.31-5.82,5.72-1.8,11.11-3.65,16.62-5.1.94-.25,3.01.99,3.31,1.93.31.95-.64,3.16-1.55,3.51-5.18,2.01-10.51,3.63-16.07,5.48Z"/>
      <path class="cls-9" d="m1028.47,283.06c2.11.7,3.62,1.19,5.95,1.97-1.8,5.5-3.37,10.82-5.39,15.96-.39,1-2.58,1.75-3.91,1.71-.6-.02-1.87-2.42-1.6-3.41,1.41-5.37,3.2-10.64,4.95-16.23Z"/>
      <path class="cls-9" d="m924.83,278.32c1.13,5.14,2.46,10.24,3.24,15.43.18,1.21-1.54,2.7-2.38,4.07-1.19-.91-3.09-1.6-3.43-2.76-1.3-4.42-2.46-8.96-2.88-13.53-.12-1.35,2.35-2.93,3.63-4.41l1.82,1.21Z"/>
      <path class="cls-9" d="m792.4,608.4c4.62-3.45,8.47-6.65,12.67-9.28,1.2-.75,3.42.11,5.17.23-.48,1.56-.49,3.71-1.54,4.56-3.97,3.21-8.28,6-12.76,9.15-1.2-1.58-2.27-2.99-3.54-4.66Z"/>
      <path class="cls-9" d="m1174.18,527.15c-.55,2.33-.92,3.88-1.41,5.98-5.7-1.22-11.07-2.18-16.32-3.63-1.06-.29-1.62-2.41-2.42-3.69,1.33-.72,2.77-2.2,3.95-2.01,5.23.81,10.38,2.1,16.19,3.35Z"/>
      <path class="cls-9" d="m1013,692.9c-2.14.5-3.7.86-5.99,1.39-1.2-5.75-2.48-11.18-3.35-16.68-.16-1,1.45-3.26,2.09-3.2,1.31.11,3.34,1.18,3.64,2.25,1.44,5.23,2.41,10.59,3.62,16.24Z"/>
      <path class="cls-9" d="m758.96,533.12c-.52-2.17-.89-3.73-1.41-5.91,5.59-1.22,10.86-2.54,16.21-3.39,1.15-.18,2.57,1.35,3.87,2.1-.97,1.29-1.72,3.38-2.96,3.73-4.93,1.4-10.01,2.27-15.71,3.48Z"/>
    </g>
  </g>
  <g id="_hitpoint" data-name="#hitpoint">
    <path class="cls-3" d="m1070.58,422.5c-14.08-23.38-36-42.23-63.7-52.15"/>
  </g>
  <g id="Layer_19" data-name="Layer 19">
    <line class="cls-1" x1="1406.02" y1="859.06" x2="529.55" y2="859.06"/>
    <line class="cls-1" x1="573.44" y1="902.59" x2="573.44" y2="69.04"/>
    <line class="cls-1" x1="1361.79" y1="902.59" x2="1361.79" y2="69.04"/>
    <line class="cls-1" x1="1406.02" y1="112.8" x2="529.66" y2="112.8"/>
    <line class="cls-1" x1="1361.79" y1="124.4" x2="1361.79" y2="101.2"/>
    <g>
      <g>
        <line class="cls-2" x1="1362.14" y1="125.1" x2="1362.14" y2="100.5"/>
        <line class="cls-2" x1="1349.83" y1="112.8" x2="1374.44" y2="112.8"/>
      </g>
      <g>
        <line class="cls-2" x1="573.44" y1="125.1" x2="573.44" y2="100.5"/>
        <line class="cls-2" x1="561.14" y1="112.8" x2="585.75" y2="112.8"/>
      </g>
    </g>
    <g>
      <g>
        <line class="cls-2" x1="1362.14" y1="871.36" x2="1362.14" y2="846.75"/>
        <line class="cls-2" x1="1349.83" y1="859.06" x2="1374.44" y2="859.06"/>
      </g>
      <g>
        <line class="cls-2" x1="573.44" y1="871.36" x2="573.44" y2="846.75"/>
        <line class="cls-2" x1="561.14" y1="859.06" x2="585.75" y2="859.06"/>
      </g>
    </g>
  </g>
  <g id="_bolttension" data-name="#bolttension">
    <text class="cls-12" transform="translate(1292.14 764.65)"><tspan x="0" y="0">100%</tspan></text>
    <rect class="cls-4" x="1267.12" y="749.27" width="83.23" height="20.12"/>
  </g>
  <g id="_precision" data-name="#precision">
    <text class="cls-12" transform="translate(1292.14 800.55)"><tspan x="0" y="0">100%</tspan></text>
    <rect class="cls-4" x="1267.12" y="783.98" width="81.55" height="20.12"/>
  </g>
  <g id="_timeremaining" data-name="#timeremaining">
    <text class="cls-12" transform="translate(1280.06 837.12)"><tspan x="0" y="0">00:00</tspan></text>
    <rect class="cls-4" x="1267.12" y="820.78" width="79.33" height="20.12"/>
  </g>
  <g id="STATIC_UI">
    <rect class="cls-1" x="1097.78" y="743.96" width="250.88" height="27.59"/>
    <rect class="cls-1" x="1135.23" y="779.1" width="213.43" height="27.59"/>
    <rect class="cls-1" x="1080.54" y="816.01" width="268.12" height="27.59"/>
    <g>
      <path class="cls-11" d="m1123.13,760.76v.72c0,.9-.32,1.68-.96,2.33-.64.65-1.42.97-2.32.97h-5.02v-12.98h5.02c.9,0,1.68.32,2.32.97s.96,1.42.96,2.33v.69c0,.97-.38,1.8-1.12,2.48.75.7,1.12,1.52,1.12,2.48Zm-1.68-4.98v-.67c0-.46-.16-.85-.48-1.17-.32-.33-.71-.49-1.16-.49h-3.34v3.97h3.34c.44,0,.83-.16,1.15-.48.33-.32.49-.71.49-1.16Zm0,5.7v-.68c0-.46-.16-.85-.48-1.17-.32-.33-.71-.49-1.16-.49h-3.32v3.98h3.32c.44,0,.83-.16,1.15-.48.33-.32.49-.71.49-1.16Z"/>
      <path class="cls-11" d="m1133.03,753l1.81,3.68c.25.5.38,1.04.38,1.63s-.13,1.11-.38,1.62l-1.81,3.64c-.38.8-1.04,1.2-1.95,1.2-.44,0-.83-.11-1.18-.34-.35-.23-.61-.51-.79-.86l-1.82-3.64c-.24-.48-.36-1.02-.36-1.62s.12-1.15.36-1.63l1.82-3.68c.41-.8,1.06-1.2,1.96-1.2s1.56.4,1.95,1.2Zm-2.5.82l-1.7,3.46c-.16.34-.23.68-.23,1.02,0,.36.08.7.23,1.03l1.75,3.5c.09.21.26.32.5.32.21,0,.37-.11.48-.32l1.76-3.5c.16-.35.24-.69.24-1.03,0-.36-.08-.7-.24-1.02l-1.72-3.46c-.11-.25-.28-.38-.52-.38s-.42.13-.55.38Z"/>
      <path class="cls-11" d="m1139.03,764.78v-12.16c0-.22.08-.41.24-.58.16-.16.35-.24.58-.24s.41.08.58.24.24.35.24.58v10.52h5.8c.23,0,.42.08.59.24.17.16.25.35.25.58s-.08.42-.25.58c-.17.16-.36.24-.59.24h-7.44Z"/>
      <path class="cls-11" d="m1151.09,754.04v-2.22h8.28v2.24c0,.23-.08.42-.24.58-.16.16-.36.24-.58.24s-.42-.08-.59-.24c-.17-.16-.25-.36-.25-.58v-.6h-1.66v10.5c0,.23-.08.42-.24.58-.16.16-.36.24-.58.24-.23,0-.43-.08-.6-.24-.16-.16-.24-.35-.24-.58v-10.5h-1.66v.58c0,.23-.08.42-.24.58-.16.16-.35.24-.58.24s-.42-.08-.58-.24c-.16-.16-.24-.35-.24-.58Z"/>
      <path class="cls-11" d="m1175.25,754.04v-2.22h8.28v2.24c0,.23-.08.42-.24.58-.16.16-.36.24-.58.24s-.42-.08-.59-.24c-.17-.16-.25-.36-.25-.58v-.6h-1.66v10.5c0,.23-.08.42-.24.58-.16.16-.36.24-.58.24-.23,0-.43-.08-.6-.24-.16-.16-.24-.35-.24-.58v-10.5h-1.66v.58c0,.23-.08.42-.24.58-.16.16-.35.24-.58.24s-.42-.08-.58-.24c-.16-.16-.24-.35-.24-.58Z"/>
      <path class="cls-11" d="m1194.79,753.46h-5.8v3.99h2.5c.22,0,.41.08.58.24s.24.35.24.58c0,.23-.08.43-.24.6-.16.16-.35.24-.58.24h-2.5v4.02h5.82c.22,0,.41.08.58.24.16.16.24.35.24.58s-.08.42-.25.58c-.17.16-.36.24-.59.24h-7.44v-12.98h7.44c.23,0,.42.08.59.25s.25.36.25.59-.08.41-.25.58c-.17.16-.36.24-.59.24Z"/>
      <path class="cls-11" d="m1207.69,752.64v12.14h-2.2l-4.42-10.08v9.26c0,.23-.08.42-.24.58-.16.16-.35.24-.58.24s-.42-.08-.58-.24c-.16-.16-.24-.35-.24-.58v-12.16h2.17l4.43,10.06v-9.22c0-.23.08-.42.25-.59s.36-.25.59-.25.42.08.58.24c.16.16.24.36.24.6Z"/>
      <path class="cls-11" d="m1213.36,751.8h4.27c.52,0,1.02.22,1.48.66s.7.97.7,1.6c0,.23-.08.43-.25.6-.17.16-.35.24-.55.24-.28,0-.47-.06-.58-.19-.1-.13-.2-.36-.3-.71-.09-.35-.31-.52-.63-.52h-4.06c-.2,0-.29.06-.29.19,0,.08.04.17.12.28l6.1,7.78c.29.38.44.78.44,1.21,0,.49-.18.92-.53,1.29s-.75.56-1.19.56h-4.42c-.59,0-1.1-.22-1.53-.67-.43-.45-.65-.94-.65-1.47,0-.61.29-.92.86-.92.22,0,.41.08.57.24.16.16.23.35.23.56,0,.18.06.32.18.44s.27.18.45.18h4.08c.18,0,.26-.07.26-.21,0-.07-.04-.15-.12-.26l-6.09-7.78c-.29-.37-.43-.77-.43-1.21,0-.51.18-.95.55-1.32.37-.38.81-.56,1.32-.56Z"/>
      <path class="cls-11" d="m1224.39,751.8h6.64c.21,0,.41.08.57.24.17.16.25.35.25.58s-.08.42-.24.59c-.16.17-.36.25-.58.25h-2.48v9.68h2.48c.23,0,.42.08.58.24.16.16.24.35.24.58s-.08.42-.24.58c-.16.16-.36.24-.58.24h-6.64c-.23,0-.42-.08-.58-.24-.16-.16-.24-.35-.24-.58s.08-.42.24-.58c.16-.16.35-.24.58-.24h2.52v-9.68h-2.52c-.23,0-.42-.08-.58-.24-.16-.16-.24-.36-.24-.58,0-.23.08-.43.24-.6.16-.16.35-.24.58-.24Z"/>
      <path class="cls-11" d="m1241.75,753l1.81,3.68c.25.5.38,1.04.38,1.63s-.13,1.11-.38,1.62l-1.81,3.64c-.38.8-1.04,1.2-1.95,1.2-.44,0-.83-.11-1.18-.34-.35-.23-.61-.51-.79-.86l-1.82-3.64c-.24-.48-.36-1.02-.36-1.62s.12-1.15.36-1.63l1.82-3.68c.41-.8,1.06-1.2,1.96-1.2s1.56.4,1.95,1.2Zm-2.5.82l-1.7,3.46c-.16.34-.23.68-.23,1.02,0,.36.08.7.23,1.03l1.75,3.5c.09.21.26.32.5.32.21,0,.37-.11.48-.32l1.76-3.5c.16-.35.24-.69.24-1.03,0-.36-.08-.7-.24-1.02l-1.72-3.46c-.11-.25-.28-.38-.52-.38s-.42.13-.55.38Z"/>
      <path class="cls-11" d="m1256.02,752.64v12.14h-2.2l-4.42-10.08v9.26c0,.23-.08.42-.24.58-.16.16-.35.24-.58.24s-.42-.08-.58-.24c-.16-.16-.24-.35-.24-.58v-12.16h2.17l4.43,10.06v-9.22c0-.23.08-.42.25-.59s.36-.25.59-.25.42.08.58.24c.16.16.24.36.24.6Z"/>
    </g>
    <g>
      <path class="cls-11" d="m1151.11,798.67v-12.16h5.82c.67,0,1.25.24,1.73.73s.73,1.07.73,1.75v3.08c0,.68-.24,1.26-.72,1.74s-1.06.72-1.74.72h-4.16v4.14c0,.23-.08.42-.24.58-.16.16-.35.24-.58.24s-.43-.08-.6-.24c-.16-.16-.24-.35-.24-.58Zm1.66-5.78h4.16c.22,0,.41-.08.58-.24.16-.16.24-.35.24-.58v-3.08c0-.23-.08-.42-.24-.58-.16-.16-.36-.24-.58-.24h-4.16v4.72Z"/>
      <path class="cls-11" d="m1163.21,798.67v-12.16h5.8c.67,0,1.25.24,1.73.73s.73,1.07.73,1.75v.94c0,.68-.24,1.27-.72,1.75-.48.48-1.06.73-1.74.73h-1.04l3.35,5.76c.1.17.16.34.16.51,0,.22-.08.41-.25.57-.17.16-.36.24-.58.24-.33,0-.57-.14-.74-.44l-3.84-6.64h-1.19v6.26c0,.23-.08.42-.25.58-.17.16-.36.24-.59.24s-.42-.08-.58-.24c-.16-.16-.24-.35-.24-.58Zm1.64-7.9h4.16c.23,0,.42-.08.58-.24.16-.16.24-.35.24-.58v-.96c0-.23-.08-.42-.24-.58-.16-.16-.35-.24-.58-.24h-4.16v2.6Z"/>
      <path class="cls-11" d="m1182.71,788.18h-5.8v3.99h2.5c.22,0,.41.08.58.24.16.16.24.36.24.58,0,.23-.08.43-.24.6-.16.16-.35.24-.58.24h-2.5v4.02h5.82c.22,0,.41.08.58.24.16.16.24.35.24.58s-.08.42-.25.58c-.17.16-.36.24-.59.24h-7.44v-12.98h7.44c.23,0,.42.08.59.25s.25.36.25.59-.08.41-.25.58c-.17.16-.36.24-.59.24Z"/>
      <path class="cls-11" d="m1191.85,797.85h2.96c.23,0,.42.08.59.24.17.16.25.35.25.58s-.08.42-.25.58c-.17.16-.36.24-.59.24h-3.07c-.39,0-.79-.12-1.21-.37-.42-.25-.71-.52-.87-.83l-1.89-3.66c-.25-.53-.38-1.07-.38-1.62,0-.61.12-1.14.36-1.59l1.91-3.62c.18-.34.46-.64.85-.89.38-.26.75-.39,1.11-.39h3.24c.23,0,.42.08.58.24.16.16.24.36.24.58s-.08.43-.24.59-.35.25-.58.25h-3.12c-.26,0-.47.15-.63.46l-1.82,3.4c-.14.27-.21.58-.21.95,0,.38.08.72.23,1.02l1.74,3.34c.16.35.43.52.8.52Z"/>
      <path class="cls-11" d="m1200.23,786.52h6.64c.21,0,.41.08.57.24.17.16.25.36.25.58s-.08.43-.24.59c-.16.17-.36.25-.58.25h-2.48v9.68h2.48c.23,0,.42.08.58.24.16.16.24.35.24.58s-.08.42-.24.58c-.16.16-.36.24-.58.24h-6.64c-.23,0-.42-.08-.58-.24-.16-.16-.24-.35-.24-.58s.08-.42.24-.58c.16-.16.35-.24.58-.24h2.52v-9.68h-2.52c-.23,0-.42-.08-.58-.24-.16-.16-.24-.35-.24-.58,0-.23.08-.43.24-.6.16-.16.35-.24.58-.24Z"/>
      <path class="cls-11" d="m1213.36,786.52h4.27c.52,0,1.02.22,1.48.66s.7.97.7,1.6c0,.23-.08.43-.25.6-.17.16-.35.24-.55.24-.28,0-.47-.06-.58-.19-.1-.13-.2-.36-.3-.71-.09-.34-.31-.52-.63-.52h-4.06c-.2,0-.29.06-.29.19,0,.08.04.17.12.28l6.1,7.78c.29.38.44.78.44,1.21,0,.49-.18.92-.53,1.29s-.75.56-1.19.56h-4.42c-.59,0-1.1-.22-1.53-.67-.43-.45-.65-.94-.65-1.47,0-.61.29-.92.86-.92.22,0,.41.08.57.24.16.16.23.35.23.56,0,.18.06.32.18.44s.27.18.45.18h4.08c.18,0,.26-.07.26-.21,0-.07-.04-.15-.12-.26l-6.09-7.78c-.29-.37-.43-.77-.43-1.21,0-.51.18-.95.55-1.32.37-.38.81-.56,1.32-.56Z"/>
      <path class="cls-11" d="m1224.39,786.52h6.64c.21,0,.41.08.57.24.17.16.25.36.25.58s-.08.43-.24.59c-.16.17-.36.25-.58.25h-2.48v9.68h2.48c.23,0,.42.08.58.24.16.16.24.35.24.58s-.08.42-.24.58c-.16.16-.36.24-.58.24h-6.64c-.23,0-.42-.08-.58-.24-.16-.16-.24-.35-.24-.58s.08-.42.24-.58c.16-.16.35-.24.58-.24h2.52v-9.68h-2.52c-.23,0-.42-.08-.58-.24-.16-.16-.24-.35-.24-.58,0-.23.08-.43.24-.6.16-.16.35-.24.58-.24Z"/>
      <path class="cls-11" d="m1241.75,787.72l1.81,3.68c.25.5.38,1.04.38,1.63s-.13,1.11-.38,1.62l-1.81,3.64c-.38.8-1.04,1.2-1.95,1.2-.44,0-.83-.11-1.18-.34-.35-.23-.61-.51-.79-.86l-1.82-3.64c-.24-.47-.36-1.02-.36-1.62s.12-1.15.36-1.63l1.82-3.68c.41-.8,1.06-1.2,1.96-1.2s1.56.4,1.95,1.2Zm-2.5.82l-1.7,3.46c-.16.35-.23.68-.23,1.02,0,.36.08.7.23,1.03l1.75,3.5c.09.21.26.32.5.32.21,0,.37-.11.48-.32l1.76-3.5c.16-.34.24-.69.24-1.03,0-.36-.08-.7-.24-1.02l-1.72-3.46c-.11-.25-.28-.38-.52-.38s-.42.13-.55.38Z"/>
      <path class="cls-11" d="m1256.02,787.36v12.14h-2.2l-4.42-10.08v9.26c0,.23-.08.42-.24.58-.16.16-.35.24-.58.24s-.42-.08-.58-.24c-.16-.16-.24-.35-.24-.58v-12.16h2.17l4.43,10.06v-9.22c0-.23.08-.42.25-.59s.36-.25.59-.25.42.08.58.24c.16.16.24.36.24.6Z"/>
    </g>
    <g>
      <path class="cls-11" d="m1090.69,825.55v-2.22h8.28v2.24c0,.23-.08.42-.24.58-.16.16-.35.24-.58.24s-.42-.08-.59-.24c-.17-.16-.25-.35-.25-.58v-.6h-1.66v10.5c0,.23-.08.42-.24.58-.16.16-.35.24-.58.24-.23,0-.43-.08-.6-.24-.16-.16-.24-.35-.24-.58v-10.5h-1.66v.58c0,.23-.08.42-.24.58s-.35.24-.58.24-.42-.08-.58-.24c-.16-.16-.24-.35-.24-.58Z"/>
      <path class="cls-11" d="m1103.59,823.31h6.64c.21,0,.41.08.57.24.17.16.25.36.25.58s-.08.42-.24.59-.35.25-.58.25h-2.48v9.68h2.48c.23,0,.42.08.58.24.16.16.24.35.24.58s-.08.42-.24.58c-.16.16-.35.24-.58.24h-6.64c-.23,0-.42-.08-.58-.24-.16-.16-.24-.35-.24-.58s.08-.42.24-.58.35-.24.58-.24h2.52v-9.68h-2.52c-.23,0-.42-.08-.58-.24-.16-.16-.24-.35-.24-.58,0-.23.08-.43.24-.6.16-.16.35-.24.58-.24Z"/>
      <path class="cls-11" d="m1118.17,828.41v-.42l-1.7-2.42v9.9c0,.23-.08.42-.24.58s-.35.24-.58.24-.42-.08-.58-.24c-.16-.16-.24-.35-.24-.58v-12.16h2.12l2.01,2.94,2.08-2.94h2.08v12.16c0,.23-.08.42-.25.58-.17.16-.36.24-.59.24s-.41-.08-.58-.24c-.16-.16-.24-.35-.24-.58v-9.86l-1.66,2.34v.46c0,.22-.08.41-.24.58-.16.16-.35.24-.58.24s-.42-.08-.58-.24c-.16-.16-.24-.35-.24-.58Z"/>
      <path class="cls-11" d="m1134.39,824.97h-5.8v3.99h2.5c.22,0,.41.08.58.24.16.16.24.36.24.58,0,.23-.08.43-.24.6-.16.16-.35.24-.58.24h-2.5v4.02h5.82c.22,0,.41.08.58.24.16.16.24.35.24.58s-.08.42-.25.58c-.17.16-.36.24-.59.24h-7.44v-12.98h7.44c.23,0,.42.08.59.25s.25.36.25.59-.08.41-.25.58c-.17.16-.36.24-.59.24Z"/>
      <path class="cls-11" d="m1151.13,835.47v-12.16h5.8c.67,0,1.25.24,1.73.73.48.49.73,1.07.73,1.75v.94c0,.68-.24,1.27-.72,1.75-.48.49-1.06.73-1.74.73h-1.04l3.35,5.76c.1.17.16.34.16.51,0,.22-.08.41-.25.57-.17.16-.36.24-.58.24-.33,0-.57-.14-.74-.44l-3.84-6.64h-1.19v6.26c0,.23-.08.42-.25.58-.17.16-.36.24-.59.24s-.42-.08-.58-.24c-.16-.16-.24-.35-.24-.58Zm1.64-7.9h4.16c.23,0,.42-.08.58-.24s.24-.35.24-.58v-.96c0-.23-.08-.42-.24-.58-.16-.16-.35-.24-.58-.24h-4.16v2.6Z"/>
      <path class="cls-11" d="m1170.64,824.97h-5.8v3.99h2.5c.22,0,.41.08.58.24.16.16.24.36.24.58,0,.23-.08.43-.24.6-.16.16-.35.24-.58.24h-2.5v4.02h5.82c.22,0,.41.08.58.24.16.16.24.35.24.58s-.08.42-.25.58c-.17.16-.36.24-.59.24h-7.44v-12.98h7.44c.23,0,.42.08.59.25s.25.36.25.59-.08.41-.25.58c-.17.16-.36.24-.59.24Z"/>
      <path class="cls-11" d="m1178.57,828.41v-.42l-1.7-2.42v9.9c0,.23-.08.42-.24.58s-.35.24-.58.24-.42-.08-.58-.24c-.16-.16-.24-.35-.24-.58v-12.16h2.12l2.01,2.94,2.08-2.94h2.08v12.16c0,.23-.08.42-.25.58-.17.16-.36.24-.59.24s-.41-.08-.58-.24c-.16-.16-.24-.35-.24-.58v-9.86l-1.66,2.34v.46c0,.22-.08.41-.24.58-.16.16-.35.24-.58.24s-.42-.08-.58-.24c-.16-.16-.24-.35-.24-.58Z"/>
      <path class="cls-11" d="m1187.4,835.15l3.3-11.23c.13-.41.41-.61.83-.61s.67.17.77.52l3.27,11.4c.03.08.04.17.04.24,0,.23-.08.42-.23.58-.16.16-.33.24-.54.24-.43,0-.7-.2-.82-.6l-.65-2.23h-3.76l-.71,2.39c-.02.1-.1.2-.25.3-.14.09-.3.14-.47.14-.24,0-.44-.08-.6-.24-.16-.16-.24-.36-.24-.6,0-.1.02-.2.05-.3Zm4.12-8.04l-1.41,4.7h2.78l-1.37-4.7Z"/>
      <path class="cls-11" d="m1200.23,823.31h6.64c.21,0,.41.08.57.24.17.16.25.36.25.58s-.08.42-.24.59-.35.25-.58.25h-2.48v9.68h2.48c.23,0,.42.08.58.24.16.16.24.35.24.58s-.08.42-.24.58c-.16.16-.35.24-.58.24h-6.64c-.23,0-.42-.08-.58-.24-.16-.16-.24-.35-.24-.58s.08-.42.24-.58.35-.24.58-.24h2.52v-9.68h-2.52c-.23,0-.42-.08-.58-.24-.16-.16-.24-.35-.24-.58,0-.23.08-.43.24-.6.16-.16.35-.24.58-.24Z"/>
      <path class="cls-11" d="m1219.78,824.15v12.14h-2.2l-4.42-10.08v9.26c0,.23-.08.42-.24.58s-.35.24-.58.24-.42-.08-.58-.24c-.16-.16-.24-.35-.24-.58v-12.16h2.17l4.43,10.06v-9.22c0-.23.08-.42.25-.59s.36-.25.59-.25.42.08.58.24c.16.16.24.36.24.6Z"/>
      <path class="cls-11" d="m1224.39,823.31h6.64c.21,0,.41.08.57.24.17.16.25.36.25.58s-.08.42-.24.59-.35.25-.58.25h-2.48v9.68h2.48c.23,0,.42.08.58.24.16.16.24.35.24.58s-.08.42-.24.58c-.16.16-.35.24-.58.24h-6.64c-.23,0-.42-.08-.58-.24-.16-.16-.24-.35-.24-.58s.08-.42.24-.58.35-.24.58-.24h2.52v-9.68h-2.52c-.23,0-.42-.08-.58-.24-.16-.16-.24-.35-.24-.58,0-.23.08-.43.24-.6.16-.16.35-.24.58-.24Z"/>
      <path class="cls-11" d="m1243.94,824.15v12.14h-2.2l-4.42-10.08v9.26c0,.23-.08.42-.24.58s-.35.24-.58.24-.42-.08-.58-.24c-.16-.16-.24-.35-.24-.58v-12.16h2.17l4.43,10.06v-9.22c0-.23.08-.42.25-.59s.36-.25.59-.25.42.08.58.24c.16.16.24.36.24.6Z"/>
      <path class="cls-11" d="m1252.51,823.31h2.72c.23,0,.42.08.58.24.16.16.24.35.24.58,0,.24-.09.44-.26.6-.17.16-.36.24-.56.24h-2.6c-.25,0-.48.12-.67.36l-2.3,2.96c-.2.23-.29.56-.29.98v4.54c0,.23.08.43.24.6.16.16.35.24.58.24h3.34c.22,0,.41-.08.58-.24.16-.16.24-.35.24-.58v-1.78h-1.7c-.23,0-.43-.08-.59-.24-.16-.16-.23-.35-.23-.58s.08-.42.23-.58c.16-.16.35-.24.59-.24h3.34v3.42c0,.68-.24,1.26-.72,1.74-.48.48-1.06.72-1.74.72h-3.34c-.68,0-1.27-.24-1.75-.72-.49-.48-.73-1.06-.73-1.74v-4.54c0-.81.22-1.5.65-2.06l2.42-3.08c.18-.23.42-.43.74-.6.32-.16.64-.24.98-.24Z"/>
    </g>
  </g>
  <g id="_timeleft" data-name="#timeleft">
    <text class="cls-12" transform="translate(1551.18 806.77)"><tspan x="0" y="0">00:00</tspan></text>
    <rect class="cls-4" x="1539.41" y="790.43" width="79.33" height="20.12"/>
  </g>
</svg>