<?xml version="1.0" encoding="UTF-8"?>
<svg xmlns="http://www.w3.org/2000/svg" viewBox="0 0 1938 972">
  <defs>
    <style>
      .cls-1 {
        font-family: OCRAExtended, 'OCR A Extended';
        font-size: 20px;
      }

      .cls-1, .cls-2 {
        fill: #231f20;
      }

      .cls-3 {
        fill: #fff;
      }

      .cls-3, .cls-4 {
        stroke: #231f20;
        stroke-miterlimit: 10;
      }

      .cls-5, .cls-2 {
        stroke-width: 0px;
      }

      .cls-5, .cls-4 {
        fill: none;
      }

      .cls-4 {
        stroke-width: .5px;
      }
    </style>
  </defs>
  <g id="STATIC_UI">
    <rect class="cls-3" x="355.3" y="29.25" width="255.23" height="31.9"/>
    <rect class="cls-3" x="1498.25" y="29.85" width="356.96" height="31.9"/>
    <rect class="cls-3" x="1136.28" y="29.49" width="356.96" height="31.9"/>
    <rect class="cls-3" x="822.39" y="29.48" width="307.76" height="31.9"/>
    <rect class="cls-3" x="617.77" y="29.24" width="197.29" height="31.9"/>
    <rect class="cls-3" x="97.47" y="29.25" width="250.59" height="31.9"/>
    <g>
      <path class="cls-2" d="m365.58,38.7h7.48v1.05l-6.03,10.28h5.21c.23,0,.42.08.58.24s.24.35.24.58-.08.41-.24.58-.36.24-.58.24h-7.46v-1.08l6.01-10.23h-5.21c-.22,0-.41-.08-.57-.25s-.23-.36-.23-.59.08-.41.23-.58c.16-.16.34-.24.57-.24Z"/>
      <path class="cls-2" d="m382.95,39.9l1.81,3.68c.25.5.38,1.04.38,1.63s-.13,1.11-.38,1.62l-1.81,3.64c-.38.8-1.04,1.2-1.95,1.2-.44,0-.83-.11-1.18-.34-.35-.23-.61-.51-.79-.86l-1.82-3.64c-.24-.47-.36-1.02-.36-1.62s.12-1.15.36-1.63l1.82-3.68c.41-.8,1.06-1.2,1.96-1.2s1.56.4,1.95,1.2Zm-2.5.82l-1.7,3.46c-.16.35-.23.68-.23,1.02,0,.36.08.7.23,1.03l1.75,3.5c.09.21.26.32.5.32.21,0,.37-.11.48-.32l1.76-3.5c.16-.34.24-.69.24-1.03,0-.36-.08-.7-.24-1.02l-1.72-3.46c-.11-.25-.28-.38-.52-.38s-.42.13-.55.38Z"/>
      <path class="cls-2" d="m397.22,39.54v12.14h-2.2l-4.42-10.08v9.26c0,.23-.08.42-.24.58-.16.16-.35.24-.58.24s-.42-.08-.58-.24-.24-.35-.24-.58v-12.16h2.17l4.43,10.06v-9.22c0-.23.08-.42.25-.59s.36-.25.59-.25.42.08.58.24c.16.16.24.36.24.6Z"/>
      <path class="cls-2" d="m408.48,40.36h-5.8v3.99h2.5c.22,0,.41.08.58.24.16.16.24.36.24.58,0,.23-.08.43-.24.6-.16.16-.35.24-.58.24h-2.5v4.02h5.82c.22,0,.41.08.58.24.16.16.24.35.24.58s-.08.42-.25.58c-.17.16-.36.24-.59.24h-7.44v-12.98h7.44c.23,0,.42.08.59.25s.25.36.25.59-.08.41-.25.58c-.17.16-.36.24-.59.24Z"/>
      <path class="cls-2" d="m425.96,50.02h2.52v-9.68h-2.48c-.23,0-.42-.08-.58-.24s-.24-.35-.24-.58.08-.42.24-.58c.16-.16.35-.24.58-.24h4.12v11.32h1.64v-3.42c0-.22.08-.41.24-.58.16-.16.35-.24.58-.24s.42.08.58.24.24.35.24.58v4.24c0,.23-.08.42-.24.58-.16.16-.35.24-.58.24h-6.62c-.23,0-.42-.08-.58-.25-.16-.17-.24-.36-.24-.59s.08-.41.24-.57c.16-.16.35-.23.58-.23Z"/>
      <path class="cls-2" d="m457.62,45.14v.72c0,.23-.08.43-.24.59-.16.17-.35.25-.58.25h-6.62c-.23,0-.42-.08-.58-.25-.16-.17-.24-.36-.24-.59v-.72c0-.23.08-.42.24-.58.16-.16.35-.24.58-.24h6.62c.21,0,.4.08.57.23.17.15.25.35.25.59Z"/>
      <path class="cls-2" d="m474.32,38.7h3.24c.42,0,.83.14,1.24.41.4.27.69.59.88.97l1.62,3.28c.31.59.46,1.21.46,1.86,0,.6-.16,1.21-.49,1.85l-1.63,3.24c-.21.42-.51.75-.9,1-.39.25-.83.38-1.31.38h-3.13c-.23,0-.42-.08-.58-.24-.16-.16-.24-.35-.24-.58s.08-.42.24-.59c.16-.17.35-.25.58-.25h.86v-9.66h-.84c-.23,0-.42-.08-.58-.25-.16-.17-.24-.36-.24-.59s.08-.41.24-.58c.16-.16.35-.24.58-.24Zm2.48,1.66v9.68h.57c.36,0,.64-.18.82-.54l1.62-3.22c.2-.42.3-.78.31-1.06,0-.36-.08-.7-.25-1.02l-1.68-3.34c-.18-.33-.46-.5-.86-.5h-.54Z"/>
      <path class="cls-2" d="m486.4,38.7h6.64c.21,0,.41.08.57.24.17.16.25.36.25.58s-.08.43-.24.59c-.16.17-.36.25-.58.25h-2.48v9.68h2.48c.23,0,.42.08.58.24s.24.35.24.58-.08.42-.24.58c-.16.16-.36.24-.58.24h-6.64c-.23,0-.42-.08-.58-.24s-.24-.35-.24-.58.08-.42.24-.58c.16-.16.35-.24.58-.24h2.52v-9.68h-2.52c-.23,0-.42-.08-.58-.24-.16-.16-.24-.35-.24-.58,0-.23.08-.43.24-.6.16-.16.35-.24.58-.24Z"/>
      <path class="cls-2" d="m499.53,38.7h4.27c.52,0,1.02.22,1.48.66s.7.97.7,1.6c0,.23-.08.43-.25.6-.17.16-.35.24-.55.24-.28,0-.47-.06-.58-.19-.1-.13-.2-.36-.3-.71-.1-.34-.31-.52-.63-.52h-4.06c-.2,0-.29.06-.29.19,0,.08.03.17.12.28l6.1,7.78c.29.38.44.78.44,1.21,0,.49-.18.92-.53,1.29-.36.37-.75.56-1.19.56h-4.42c-.59,0-1.1-.22-1.53-.67-.43-.45-.65-.94-.65-1.47,0-.61.29-.92.86-.92.22,0,.41.08.57.24.16.16.23.35.23.56,0,.18.06.32.18.44.12.12.27.18.45.18h4.08c.18,0,.26-.07.26-.21,0-.07-.04-.15-.12-.26l-6.09-7.78c-.29-.37-.43-.77-.43-1.21,0-.51.18-.95.55-1.32.37-.38.81-.56,1.32-.56Z"/>
      <path class="cls-2" d="m509.81,50.54l3.3-11.23c.13-.41.41-.61.83-.61s.67.17.77.52l3.27,11.4c.03.08.04.17.04.24,0,.23-.08.42-.23.58-.16.16-.33.24-.54.24-.43,0-.7-.2-.82-.6l-.65-2.23h-3.76l-.71,2.39c-.02.1-.1.2-.25.3-.14.09-.3.14-.47.14-.24,0-.44-.08-.6-.24-.16-.16-.24-.36-.24-.6,0-.1.02-.2.05-.3Zm4.12-8.04l-1.41,4.7h2.78l-1.37-4.7Z"/>
      <path class="cls-2" d="m523.69,38.7h4.27c.52,0,1.02.22,1.48.66s.7.97.7,1.6c0,.23-.08.43-.25.6-.17.16-.35.24-.55.24-.28,0-.47-.06-.58-.19-.1-.13-.2-.36-.3-.71-.1-.34-.31-.52-.63-.52h-4.06c-.2,0-.29.06-.29.19,0,.08.03.17.12.28l6.1,7.78c.29.38.44.78.44,1.21,0,.49-.18.92-.53,1.29-.36.37-.75.56-1.19.56h-4.42c-.59,0-1.1-.22-1.53-.67-.43-.45-.65-.94-.65-1.47,0-.61.29-.92.86-.92.22,0,.41.08.57.24.16.16.23.35.23.56,0,.18.06.32.18.44.12.12.27.18.45.18h4.08c.18,0,.26-.07.26-.21,0-.07-.04-.15-.12-.26l-6.09-7.78c-.29-.37-.43-.77-.43-1.21,0-.51.18-.95.55-1.32.37-.38.81-.56,1.32-.56Z"/>
      <path class="cls-2" d="m535.77,38.7h4.27c.52,0,1.02.22,1.48.66s.7.97.7,1.6c0,.23-.08.43-.25.6-.17.16-.35.24-.55.24-.28,0-.47-.06-.58-.19-.1-.13-.2-.36-.3-.71-.1-.34-.31-.52-.63-.52h-4.06c-.2,0-.29.06-.29.19,0,.08.03.17.12.28l6.1,7.78c.29.38.44.78.44,1.21,0,.49-.18.92-.53,1.29-.36.37-.75.56-1.19.56h-4.42c-.59,0-1.1-.22-1.53-.67-.43-.45-.65-.94-.65-1.47,0-.61.29-.92.86-.92.22,0,.41.08.57.24.16.16.23.35.23.56,0,.18.06.32.18.44.12.12.27.18.45.18h4.08c.18,0,.26-.07.26-.21,0-.07-.04-.15-.12-.26l-6.09-7.78c-.29-.37-.43-.77-.43-1.21,0-.51.18-.95.55-1.32.37-.38.81-.56,1.32-.56Z"/>
      <path class="cls-2" d="m553.44,40.36h-5.8v3.99h2.5c.22,0,.41.08.58.24.16.16.24.36.24.58,0,.23-.08.43-.24.6-.16.16-.35.24-.58.24h-2.5v4.02h5.82c.22,0,.41.08.58.24.16.16.24.35.24.58s-.08.42-.25.58c-.17.16-.36.24-.59.24h-7.44v-12.98h7.44c.23,0,.42.08.59.25s.25.36.25.59-.08.41-.25.58c-.17.16-.36.24-.59.24Z"/>
      <path class="cls-2" d="m561.38,43.8v-.42l-1.7-2.42v9.9c0,.23-.08.42-.24.58-.16.16-.35.24-.58.24s-.42-.08-.58-.24c-.16-.16-.24-.35-.24-.58v-12.16h2.12l2.02,2.94,2.08-2.94h2.08v12.16c0,.23-.08.42-.25.58-.17.16-.36.24-.59.24s-.41-.08-.58-.24c-.16-.16-.24-.35-.24-.58v-9.86l-1.66,2.34v.46c0,.22-.08.41-.24.58s-.36.24-.58.24-.42-.08-.58-.24c-.16-.16-.24-.35-.24-.58Z"/>
      <path class="cls-2" d="m578.42,47.65v.72c0,.91-.32,1.68-.96,2.33-.64.65-1.42.97-2.32.97h-5.02v-12.98h5.02c.9,0,1.68.32,2.32.97.64.64.96,1.42.96,2.33v.69c0,.97-.38,1.8-1.12,2.48.75.7,1.12,1.52,1.12,2.48Zm-1.68-4.98v-.67c0-.46-.16-.85-.48-1.17-.32-.33-.71-.49-1.16-.49h-3.34v3.97h3.34c.44,0,.83-.16,1.15-.48.33-.32.49-.71.49-1.16Zm0,5.7v-.68c0-.46-.16-.85-.48-1.17-.32-.33-.71-.49-1.16-.49h-3.32v3.98h3.32c.44,0,.83-.16,1.15-.48.33-.32.49-.71.49-1.16Z"/>
      <path class="cls-2" d="m582.24,51.68v-12.16c0-.22.08-.41.24-.58s.35-.24.58-.24.41.08.58.24c.16.16.24.36.24.58v10.52h5.8c.23,0,.42.08.59.24.17.16.25.35.25.58s-.08.42-.25.58c-.17.16-.36.24-.59.24h-7.44Z"/>
      <path class="cls-2" d="m599.3,45.45v5.41c0,.23-.08.42-.24.58-.16.16-.36.24-.58.24-.23,0-.43-.08-.6-.24-.16-.16-.24-.35-.24-.58v-5.4l-3.3-4.18v-1.74c0-.23.08-.43.24-.6.16-.16.35-.24.58-.24s.42.08.59.25.25.37.25.59v1.13l2.46,3.16,2.5-3.16v-1.14c0-.23.08-.42.24-.59.16-.17.35-.25.58-.25s.41.08.57.23c.17.15.25.36.25.61v1.72l-3.3,4.19Z"/>
    </g>
    <g>
      <path class="cls-2" d="m1174.3,51.1v-12.16h5.82c.67,0,1.25.24,1.73.73.48.49.73,1.07.73,1.75v3.08c0,.68-.24,1.26-.72,1.74-.48.48-1.06.72-1.74.72h-4.16v4.14c0,.23-.08.42-.24.58s-.35.24-.58.24-.43-.08-.6-.24c-.16-.16-.24-.35-.24-.58Zm1.66-5.78h4.16c.22,0,.41-.08.58-.24.16-.16.24-.35.24-.58v-3.08c0-.23-.08-.42-.24-.58-.16-.16-.35-.24-.58-.24h-4.16v4.72Z"/>
      <path class="cls-2" d="m1193.83,40.61h-5.8v3.99h2.5c.22,0,.41.08.58.24s.24.36.24.58c0,.23-.08.43-.24.6-.16.16-.35.24-.58.24h-2.5v4.02h5.82c.22,0,.41.08.58.24.16.16.24.35.24.58s-.08.42-.25.58c-.17.16-.36.24-.59.24h-7.44v-12.98h7.44c.23,0,.43.08.59.25s.25.36.25.59-.08.41-.25.58c-.17.16-.36.24-.59.24Z"/>
      <path class="cls-2" d="m1204.54,40.15l1.81,3.68c.25.5.38,1.04.38,1.63s-.13,1.11-.38,1.62l-1.81,3.64c-.38.8-1.04,1.2-1.95,1.2-.44,0-.83-.11-1.18-.34-.35-.23-.61-.51-.79-.86l-1.82-3.64c-.24-.47-.36-1.02-.36-1.62s.12-1.15.36-1.63l1.82-3.68c.41-.8,1.06-1.2,1.96-1.2s1.56.4,1.95,1.2Zm-2.5.82l-1.7,3.46c-.16.35-.23.68-.23,1.02,0,.36.08.7.23,1.03l1.75,3.5c.09.21.26.32.5.32.21,0,.37-.11.48-.32l1.76-3.5c.16-.34.24-.69.24-1.03,0-.36-.08-.7-.24-1.02l-1.72-3.46c-.11-.25-.28-.38-.52-.38s-.42.13-.55.38Z"/>
      <path class="cls-2" d="m1210.54,51.1v-12.16h5.82c.67,0,1.25.24,1.73.73.48.49.73,1.07.73,1.75v3.08c0,.68-.24,1.26-.72,1.74-.48.48-1.06.72-1.74.72h-4.16v4.14c0,.23-.08.42-.24.58s-.35.24-.58.24-.43-.08-.6-.24c-.16-.16-.24-.35-.24-.58Zm1.66-5.78h4.16c.22,0,.41-.08.58-.24.16-.16.24-.35.24-.58v-3.08c0-.23-.08-.42-.24-.58-.16-.16-.35-.24-.58-.24h-4.16v4.72Z"/>
      <path class="cls-2" d="m1222.62,51.92v-12.16c0-.22.08-.41.24-.58.16-.16.36-.24.58-.24s.41.08.58.24.24.36.24.58v10.52h5.8c.23,0,.43.08.59.24.17.16.25.35.25.58s-.08.42-.25.58c-.17.16-.36.24-.59.24h-7.44Z"/>
      <path class="cls-2" d="m1242.15,40.61h-5.8v3.99h2.5c.22,0,.41.08.58.24s.24.36.24.58c0,.23-.08.43-.24.6-.16.16-.35.24-.58.24h-2.5v4.02h5.82c.22,0,.41.08.58.24.16.16.24.35.24.58s-.08.42-.25.58c-.17.16-.36.24-.59.24h-7.44v-12.98h7.44c.23,0,.43.08.59.25s.25.36.25.59-.08.41-.25.58c-.17.16-.36.24-.59.24Z"/>
      <path class="cls-2" d="m1267.13,39.79v12.14h-2.2l-4.42-10.08v9.26c0,.23-.08.42-.24.58s-.35.24-.58.24-.42-.08-.58-.24c-.16-.16-.24-.35-.24-.58v-12.16h2.17l4.43,10.06v-9.22c0-.23.08-.42.25-.59s.36-.25.59-.25.42.08.58.24c.16.16.24.36.24.6Z"/>
      <path class="cls-2" d="m1278.39,40.61h-5.8v3.99h2.5c.22,0,.41.08.58.24s.24.36.24.58c0,.23-.08.43-.24.6-.16.16-.35.24-.58.24h-2.5v4.02h5.82c.22,0,.41.08.58.24.16.16.24.35.24.58s-.08.42-.25.58c-.17.16-.36.24-.59.24h-7.44v-12.98h7.44c.23,0,.43.08.59.25s.25.36.25.59-.08.41-.25.58c-.17.16-.36.24-.59.24Z"/>
      <path class="cls-2" d="m1290.47,40.61h-5.8v3.99h2.5c.22,0,.41.08.58.24s.24.36.24.58c0,.23-.08.43-.24.6-.16.16-.35.24-.58.24h-2.5v4.02h5.82c.22,0,.41.08.58.24.16.16.24.35.24.58s-.08.42-.25.58c-.17.16-.36.24-.59.24h-7.44v-12.98h7.44c.23,0,.43.08.59.25s.25.36.25.59-.08.41-.25.58c-.17.16-.36.24-.59.24Z"/>
      <path class="cls-2" d="m1295.91,38.95h3.24c.42,0,.84.14,1.24.41.4.27.69.59.88.97l1.62,3.28c.31.59.46,1.21.46,1.86,0,.6-.16,1.21-.49,1.85l-1.63,3.24c-.21.42-.51.75-.9,1-.39.25-.83.38-1.31.38h-3.13c-.23,0-.42-.08-.58-.24-.16-.16-.24-.35-.24-.58s.08-.42.24-.59c.16-.17.35-.25.58-.25h.86v-9.66h-.84c-.23,0-.42-.08-.58-.25-.16-.17-.24-.36-.24-.59s.08-.41.24-.58c.16-.16.35-.24.58-.24Zm2.48,1.66v9.68h.57c.36,0,.64-.18.82-.54l1.62-3.22c.2-.42.3-.78.31-1.06,0-.36-.08-.7-.24-1.01l-1.68-3.34c-.18-.33-.46-.5-.86-.5h-.54Z"/>
      <path class="cls-2" d="m1307.99,38.95h6.64c.21,0,.41.08.57.24.17.16.25.36.25.58s-.08.42-.24.59c-.16.17-.35.25-.58.25h-2.48v9.68h2.48c.23,0,.42.08.58.24.16.16.24.35.24.58s-.08.42-.24.58c-.16.16-.35.24-.58.24h-6.64c-.23,0-.42-.08-.58-.24-.16-.16-.24-.35-.24-.58s.08-.42.24-.58.35-.24.58-.24h2.52v-9.68h-2.52c-.23,0-.42-.08-.58-.24-.16-.16-.24-.35-.24-.58,0-.23.08-.43.24-.6.16-.16.35-.24.58-.24Z"/>
      <path class="cls-2" d="m1327.53,39.79v12.14h-2.2l-4.42-10.08v9.26c0,.23-.08.42-.24.58s-.35.24-.58.24-.42-.08-.58-.24c-.16-.16-.24-.35-.24-.58v-12.16h2.17l4.43,10.06v-9.22c0-.23.08-.42.25-.59s.36-.25.59-.25.42.08.58.24c.16.16.24.36.24.6Z"/>
      <path class="cls-2" d="m1336.1,38.95h2.72c.23,0,.42.08.58.24.16.16.24.35.24.58,0,.24-.09.44-.26.6-.17.16-.36.24-.56.24h-2.6c-.25,0-.48.12-.66.36l-2.3,2.96c-.2.23-.29.56-.29.98v4.54c0,.23.08.43.24.6.16.16.35.24.58.24h3.34c.22,0,.41-.08.58-.24.16-.16.24-.35.24-.58v-1.78h-1.7c-.23,0-.43-.08-.59-.24-.16-.16-.23-.35-.23-.58s.08-.42.23-.58c.16-.16.35-.24.59-.24h3.34v3.42c0,.68-.24,1.26-.72,1.74-.48.48-1.06.72-1.74.72h-3.34c-.68,0-1.27-.24-1.75-.72-.49-.48-.73-1.06-.73-1.74v-4.54c0-.81.22-1.5.65-2.06l2.42-3.08c.18-.23.42-.43.74-.6.32-.16.64-.24.98-.24Z"/>
      <path class="cls-2" d="m1355.47,51.1v-11.34c0-.22.08-.41.24-.58.16-.16.35-.24.58-.24s.41.08.58.24.24.36.24.58v4.83h5v-4.83c0-.22.08-.41.24-.58.16-.16.35-.24.58-.24s.42.08.58.24c.16.16.24.36.24.6v11.32c0,.22-.08.41-.25.58-.17.16-.36.24-.57.24-.23,0-.43-.08-.59-.24-.16-.16-.23-.35-.23-.58v-4.86h-4.98v4.86c0,.22-.08.41-.25.58-.17.16-.36.24-.59.24s-.41-.08-.58-.24c-.16-.16-.24-.35-.24-.58Z"/>
      <path class="cls-2" d="m1373.66,40.15l1.81,3.68c.25.5.38,1.04.38,1.63s-.13,1.11-.38,1.62l-1.81,3.64c-.38.8-1.04,1.2-1.95,1.2-.44,0-.83-.11-1.18-.34-.35-.23-.61-.51-.79-.86l-1.82-3.64c-.24-.47-.36-1.02-.36-1.62s.12-1.15.36-1.63l1.82-3.68c.41-.8,1.06-1.2,1.96-1.2s1.56.4,1.95,1.2Zm-2.5.82l-1.7,3.46c-.16.35-.23.68-.23,1.02,0,.36.08.7.23,1.03l1.75,3.5c.09.21.26.32.5.32.21,0,.37-.11.48-.32l1.76-3.5c.16-.34.24-.69.24-1.03,0-.36-.08-.7-.24-1.02l-1.72-3.46c-.11-.25-.28-.38-.52-.38s-.42.13-.55.38Z"/>
      <path class="cls-2" d="m1379.65,49.46v-9.68c0-.23.08-.42.24-.59.16-.17.36-.25.58-.25s.41.08.58.24.24.36.24.58v9.7c0,.21.08.4.24.56.16.16.36.24.58.24h3.36c.23,0,.42-.08.58-.23.16-.16.24-.34.24-.57v-9.68c0-.23.08-.43.24-.6.16-.16.35-.24.58-.24s.42.08.58.24c.16.16.24.36.24.6v9.66c0,.68-.24,1.26-.73,1.75-.49.49-1.06.73-1.73.73h-3.36c-.68,0-1.26-.24-1.74-.72s-.72-1.06-.72-1.74Z"/>
      <path class="cls-2" d="m1393.59,38.95h4.27c.52,0,1.02.22,1.48.66.47.44.7.97.7,1.6,0,.23-.08.43-.25.6-.17.16-.35.24-.55.24-.28,0-.47-.06-.58-.19-.1-.13-.2-.36-.3-.71-.09-.34-.3-.52-.63-.52h-4.06c-.2,0-.29.06-.29.19,0,.08.04.17.12.28l6.1,7.78c.29.38.44.78.44,1.21,0,.49-.18.92-.53,1.29-.36.37-.75.56-1.19.56h-4.42c-.59,0-1.09-.22-1.53-.67-.43-.45-.65-.94-.65-1.47,0-.61.29-.92.86-.92.22,0,.41.08.57.24.16.16.23.35.23.56,0,.18.06.32.18.44.12.12.27.18.45.18h4.08c.18,0,.26-.07.26-.21,0-.07-.04-.15-.12-.26l-6.09-7.78c-.29-.37-.43-.77-.43-1.21,0-.51.18-.95.55-1.32.37-.37.8-.56,1.32-.56Z"/>
      <path class="cls-2" d="m1411.27,40.61h-5.8v3.99h2.5c.22,0,.41.08.58.24s.24.36.24.58c0,.23-.08.43-.24.6-.16.16-.35.24-.58.24h-2.5v4.02h5.82c.22,0,.41.08.58.24.16.16.24.35.24.58s-.08.42-.25.58c-.17.16-.36.24-.59.24h-7.44v-12.98h7.44c.23,0,.43.08.59.25s.25.36.25.59-.08.41-.25.58c-.17.16-.36.24-.59.24Z"/>
      <path class="cls-2" d="m1417.75,38.95h4.27c.52,0,1.02.22,1.48.66.47.44.7.97.7,1.6,0,.23-.08.43-.25.6-.17.16-.35.24-.55.24-.28,0-.47-.06-.58-.19-.1-.13-.2-.36-.3-.71-.09-.34-.3-.52-.63-.52h-4.06c-.2,0-.29.06-.29.19,0,.08.04.17.12.28l6.1,7.78c.29.38.44.78.44,1.21,0,.49-.18.92-.53,1.29-.36.37-.75.56-1.19.56h-4.42c-.59,0-1.09-.22-1.53-.67-.43-.45-.65-.94-.65-1.47,0-.61.29-.92.86-.92.22,0,.41.08.57.24.16.16.23.35.23.56,0,.18.06.32.18.44.12.12.27.18.45.18h4.08c.18,0,.26-.07.26-.21,0-.07-.04-.15-.12-.26l-6.09-7.78c-.29-.37-.43-.77-.43-1.21,0-.51.18-.95.55-1.32.37-.37.8-.56,1.32-.56Z"/>
    </g>
    <g>
      <path class="cls-2" d="m831.12,41.17v-2.22h8.28v2.24c0,.23-.08.42-.24.58-.16.16-.36.24-.58.24s-.42-.08-.59-.24c-.17-.16-.25-.36-.25-.58v-.6h-1.66v10.5c0,.23-.08.42-.24.58-.16.16-.36.24-.58.24-.23,0-.43-.08-.6-.24-.16-.16-.24-.35-.24-.58v-10.5h-1.66v.58c0,.23-.08.42-.24.58-.16.16-.35.24-.58.24s-.42-.08-.58-.24-.24-.35-.24-.58Z"/>
      <path class="cls-2" d="m843.18,51.1v-11.34c0-.22.08-.41.24-.58.16-.16.35-.24.58-.24s.41.08.58.24.24.35.24.58v4.83h5v-4.83c0-.22.08-.41.24-.58.16-.16.35-.24.58-.24s.42.08.58.24c.16.16.24.36.24.6v11.32c0,.22-.08.41-.25.58-.17.16-.36.24-.57.24-.23,0-.43-.08-.59-.24-.16-.16-.23-.35-.23-.58v-4.86h-4.98v4.86c0,.22-.08.41-.25.58-.17.16-.36.24-.59.24s-.41-.08-.58-.24c-.16-.16-.24-.35-.24-.58Z"/>
      <path class="cls-2" d="m855.28,49.45v-9.68c0-.23.08-.42.24-.59.16-.17.35-.25.58-.25s.41.08.58.24.24.35.24.58v9.7c0,.21.08.4.24.56.16.16.35.24.58.24h3.36c.23,0,.42-.08.58-.23.16-.16.24-.35.24-.57v-9.68c0-.23.08-.43.24-.6.16-.16.35-.24.58-.24s.42.08.58.24c.16.16.24.36.24.6v9.66c0,.68-.24,1.26-.73,1.75-.49.49-1.06.73-1.73.73h-3.36c-.68,0-1.26-.24-1.74-.72s-.72-1.06-.72-1.74Z"/>
      <path class="cls-2" d="m867.4,51.1v-12.16h5.8c.67,0,1.25.24,1.73.73.48.49.73,1.07.73,1.75v.94c0,.68-.24,1.27-.72,1.75-.48.48-1.06.73-1.74.73h-1.04l3.35,5.76c.1.17.16.34.16.51,0,.22-.08.41-.25.57-.17.16-.36.24-.58.24-.33,0-.57-.14-.74-.44l-3.84-6.64h-1.19v6.26c0,.23-.08.42-.25.58-.17.16-.36.24-.59.24s-.42-.08-.58-.24-.24-.35-.24-.58Zm1.64-7.9h4.16c.23,0,.42-.08.58-.24.16-.16.24-.35.24-.58v-.96c0-.23-.08-.42-.24-.58s-.35-.24-.58-.24h-4.16v2.6Z"/>
      <path class="cls-2" d="m881.3,38.94h4.27c.52,0,1.02.22,1.48.66s.7.97.7,1.6c0,.23-.08.43-.25.6-.17.16-.35.24-.55.24-.28,0-.47-.06-.58-.19-.1-.13-.2-.36-.3-.71-.09-.35-.3-.52-.63-.52h-4.06c-.2,0-.29.06-.29.19,0,.08.03.17.12.28l6.1,7.78c.29.38.44.78.44,1.21,0,.49-.18.92-.53,1.29-.36.37-.75.56-1.19.56h-4.42c-.59,0-1.1-.22-1.53-.67-.43-.45-.65-.94-.65-1.47,0-.61.29-.92.86-.92.22,0,.41.08.57.24.16.16.23.35.23.56,0,.18.06.32.18.44.12.12.27.18.45.18h4.08c.18,0,.26-.07.26-.21,0-.07-.04-.15-.12-.26l-6.09-7.78c-.29-.37-.43-.77-.43-1.21,0-.51.18-.95.55-1.32.37-.38.8-.56,1.32-.56Z"/>
      <path class="cls-2" d="m892.34,38.94h3.24c.42,0,.83.14,1.24.41.4.27.69.59.88.97l1.62,3.28c.31.59.46,1.21.46,1.86,0,.6-.16,1.21-.49,1.85l-1.63,3.24c-.21.42-.51.75-.9,1-.39.25-.83.38-1.31.38h-3.13c-.23,0-.42-.08-.58-.24-.16-.16-.24-.36-.24-.58s.08-.42.24-.59c.16-.17.35-.25.58-.25h.86v-9.66h-.84c-.23,0-.42-.08-.58-.25-.16-.17-.24-.36-.24-.59s.08-.41.24-.58c.16-.16.35-.24.58-.24Zm2.48,1.66v9.68h.57c.36,0,.64-.18.82-.54l1.62-3.22c.2-.42.3-.78.31-1.06,0-.36-.08-.7-.24-1.01l-1.68-3.34c-.18-.33-.46-.5-.86-.5h-.54Z"/>
      <path class="cls-2" d="m903.67,50.77l3.3-11.23c.13-.41.41-.61.83-.61s.66.17.77.52l3.27,11.4c.03.08.04.17.04.24,0,.23-.08.42-.23.58-.16.16-.33.24-.54.24-.43,0-.7-.2-.82-.6l-.65-2.23h-3.76l-.71,2.38c-.02.1-.1.2-.25.3-.14.09-.3.14-.47.14-.24,0-.44-.08-.6-.24-.16-.16-.24-.36-.24-.6,0-.1.02-.2.05-.3Zm4.12-8.04l-1.41,4.7h2.78l-1.37-4.7Z"/>
      <path class="cls-2" d="m920.68,45.69v5.41c0,.23-.08.42-.24.58-.16.16-.36.24-.58.24-.23,0-.43-.08-.6-.24-.16-.16-.24-.35-.24-.58v-5.4l-3.3-4.18v-1.74c0-.23.08-.43.24-.6.16-.16.35-.24.58-.24s.42.08.59.25.25.37.25.59v1.13l2.46,3.16,2.5-3.16v-1.14c0-.23.08-.42.24-.59.16-.17.35-.25.58-.25s.41.08.57.23c.17.15.25.36.25.61v1.72l-3.3,4.19Z"/>
      <path class="cls-2" d="m945.93,40.14l1.81,3.68c.25.5.38,1.04.38,1.63s-.13,1.11-.38,1.62l-1.81,3.64c-.38.8-1.04,1.2-1.95,1.2-.44,0-.83-.11-1.18-.34-.35-.23-.61-.51-.79-.86l-1.82-3.64c-.24-.48-.36-1.02-.36-1.62s.12-1.15.36-1.63l1.82-3.68c.41-.8,1.06-1.2,1.96-1.2s1.56.4,1.95,1.2Zm-2.5.82l-1.7,3.46c-.16.34-.23.68-.23,1.02,0,.36.08.7.23,1.03l1.75,3.5c.09.21.26.32.5.32.21,0,.37-.11.48-.32l1.76-3.5c.16-.35.24-.69.24-1.03,0-.36-.08-.7-.24-1.02l-1.72-3.46c-.11-.25-.28-.38-.52-.38s-.42.13-.55.38Z"/>
      <path class="cls-2" d="m956.44,50.28h2.96c.23,0,.42.08.59.24.17.16.25.35.25.58s-.08.42-.25.58c-.17.16-.36.24-.59.24h-3.07c-.39,0-.79-.12-1.21-.37-.42-.25-.71-.52-.87-.83l-1.89-3.66c-.25-.53-.38-1.07-.38-1.62,0-.61.12-1.14.36-1.59l1.91-3.62c.18-.34.46-.64.85-.89.38-.26.75-.39,1.11-.39h3.24c.23,0,.42.08.58.24.16.16.24.35.24.58s-.08.42-.24.59-.35.25-.58.25h-3.12c-.26,0-.47.15-.63.46l-1.82,3.4c-.14.27-.21.58-.21.95,0,.38.08.72.23,1.02l1.74,3.34c.16.35.43.52.8.52Z"/>
      <path class="cls-2" d="m964,41.17v-2.22h8.28v2.24c0,.23-.08.42-.24.58-.16.16-.36.24-.58.24s-.42-.08-.59-.24c-.17-.16-.25-.36-.25-.58v-.6h-1.66v10.5c0,.23-.08.42-.24.58-.16.16-.36.24-.58.24-.23,0-.43-.08-.6-.24-.16-.16-.24-.35-.24-.58v-10.5h-1.66v.58c0,.23-.08.42-.24.58-.16.16-.35.24-.58.24s-.42-.08-.58-.24-.24-.35-.24-.58Z"/>
      <path class="cls-2" d="m982.17,40.14l1.81,3.68c.25.5.38,1.04.38,1.63s-.13,1.11-.38,1.62l-1.81,3.64c-.38.8-1.04,1.2-1.95,1.2-.44,0-.83-.11-1.18-.34-.35-.23-.61-.51-.79-.86l-1.82-3.64c-.24-.48-.36-1.02-.36-1.62s.12-1.15.36-1.63l1.82-3.68c.41-.8,1.06-1.2,1.96-1.2s1.56.4,1.95,1.2Zm-2.5.82l-1.7,3.46c-.16.34-.23.68-.23,1.02,0,.36.08.7.23,1.03l1.75,3.5c.09.21.26.32.5.32.21,0,.37-.11.48-.32l1.76-3.5c.16-.35.24-.69.24-1.03,0-.36-.08-.7-.24-1.02l-1.72-3.46c-.11-.25-.28-.38-.52-.38s-.42.13-.55.38Z"/>
      <path class="cls-2" d="m996.44,47.89v.72c0,.9-.32,1.68-.96,2.33-.64.65-1.42.97-2.32.97h-5.02v-12.98h5.02c.9,0,1.68.32,2.32.97.64.64.96,1.42.96,2.33v.69c0,.97-.38,1.8-1.12,2.48.75.7,1.12,1.52,1.12,2.48Zm-1.68-4.98v-.67c0-.46-.16-.85-.48-1.17-.32-.33-.71-.49-1.16-.49h-3.34v3.97h3.34c.44,0,.83-.16,1.15-.48.33-.32.49-.71.49-1.16Zm0,5.7v-.68c0-.46-.16-.85-.48-1.17-.32-.33-.71-.49-1.16-.49h-3.32v3.98h3.32c.44,0,.83-.16,1.15-.48.33-.32.49-.71.49-1.16Z"/>
      <path class="cls-2" d="m1007.7,40.6h-5.8v3.99h2.5c.22,0,.41.08.58.24s.24.35.24.58c0,.23-.08.43-.24.6-.16.16-.35.24-.58.24h-2.5v4.02h5.82c.22,0,.41.08.58.24.16.16.24.35.24.58s-.08.42-.25.58c-.17.16-.36.24-.59.24h-7.44v-12.98h7.44c.23,0,.42.08.59.25s.25.36.25.59-.08.41-.25.58c-.17.16-.36.24-.59.24Z"/>
      <path class="cls-2" d="m1012.36,51.1v-12.16h5.8c.67,0,1.25.24,1.73.73.48.49.73,1.07.73,1.75v.94c0,.68-.24,1.27-.72,1.75-.48.48-1.06.73-1.74.73h-1.04l3.35,5.76c.1.17.16.34.16.51,0,.22-.08.41-.25.57-.17.16-.36.24-.58.24-.33,0-.57-.14-.74-.44l-3.84-6.64h-1.19v6.26c0,.23-.08.42-.25.58-.17.16-.36.24-.59.24s-.42-.08-.58-.24-.24-.35-.24-.58Zm1.64-7.9h4.16c.23,0,.42-.08.58-.24.16-.16.24-.35.24-.58v-.96c0-.23-.08-.42-.24-.58s-.35-.24-.58-.24h-4.16v2.6Z"/>
      <path class="cls-2" d="m1043.94,51.9h-7.46v-5.66c0-.46.16-.85.48-1.17.32-.33.71-.49,1.16-.49h4.98v-3.99h-5.86c-.23,0-.43-.08-.59-.24-.16-.16-.23-.35-.23-.58s.08-.42.23-.58c.16-.16.35-.24.59-.24h5.86c.46,0,.85.16,1.17.48.33.32.49.71.49,1.16v3.99c0,.46-.16.85-.49,1.18-.33.32-.72.48-1.17.48h-4.98v4.02h5.82c.22,0,.41.08.58.24.16.16.24.35.24.58s-.08.42-.24.58c-.16.16-.36.24-.58.24Z"/>
      <path class="cls-2" d="m1056.84,40.58v3.08c0,.72-.22,1.29-.66,1.74.46.51.68,1.06.68,1.66v3.2c0,.45-.16.83-.49,1.16-.33.32-.72.48-1.17.48h-5.8c-.23,0-.42-.08-.58-.24s-.24-.35-.24-.58.08-.42.24-.58c.16-.16.35-.24.58-.24h5.78v-3.2c0-.23-.08-.42-.24-.59-.16-.17-.35-.25-.58-.25h-3.3c-.23,0-.42-.08-.58-.23-.16-.16-.24-.35-.24-.59s.08-.42.24-.58c.16-.16.35-.24.58-.24h3.32c.22,0,.41-.08.58-.24.16-.16.24-.35.24-.58v-3.17h-5.86c-.23,0-.42-.08-.58-.24s-.24-.35-.24-.58.08-.42.24-.58c.16-.16.35-.24.58-.24h5.86c.46,0,.84.16,1.16.48.32.32.48.71.48,1.16Z"/>
      <path class="cls-2" d="m1080.18,51.9h-7.46v-5.66c0-.46.16-.85.48-1.17.32-.33.71-.49,1.16-.49h4.98v-3.99h-5.86c-.23,0-.43-.08-.59-.24-.16-.16-.23-.35-.23-.58s.08-.42.23-.58c.16-.16.35-.24.59-.24h5.86c.46,0,.85.16,1.17.48.33.32.49.71.49,1.16v3.99c0,.46-.16.85-.49,1.18-.33.32-.72.48-1.17.48h-4.98v4.02h5.82c.22,0,.41.08.58.24.16.16.24.35.24.58s-.08.42-.24.58c-.16.16-.36.24-.58.24Z"/>
      <path class="cls-2" d="m1084.78,50.31v-9.81c0-.43.16-.8.47-1.11s.68-.47,1.11-.47h5.12c.42,0,.79.16,1.1.47.31.31.46.68.46,1.11v9.81c0,.44-.16.81-.46,1.12-.31.31-.68.46-1.12.46h-5.1c-.44,0-.82-.16-1.12-.46-.31-.31-.46-.68-.46-1.12Zm6.64-.06v-9.68h-5v9.68h5Z"/>
      <path class="cls-2" d="m1104.34,51.9h-7.46v-5.66c0-.46.16-.85.48-1.17.32-.33.71-.49,1.16-.49h4.98v-3.99h-5.86c-.23,0-.43-.08-.59-.24-.16-.16-.23-.35-.23-.58s.08-.42.23-.58c.16-.16.35-.24.59-.24h5.86c.46,0,.85.16,1.17.48.33.32.49.71.49,1.16v3.99c0,.46-.16.85-.49,1.18-.33.32-.72.48-1.17.48h-4.98v4.02h5.82c.22,0,.41.08.58.24.16.16.24.35.24.58s-.08.42-.24.58c-.16.16-.36.24-.58.24Z"/>
      <path class="cls-2" d="m1111.98,50.26h3.8v-4.02h-4.96v-7.29h5.78c.22,0,.41.08.58.24s.24.35.24.58-.08.42-.24.58c-.16.16-.35.24-.58.24h-4.12v4.01h3.3c.44,0,.83.16,1.15.49s.49.71.49,1.15v4.02c0,.45-.16.83-.48,1.16s-.71.48-1.16.48h-3.8c-.34,0-.7-.08-1.08-.24l-1.24-.52c-.33-.14-.5-.4-.5-.78,0-.23.07-.42.22-.58.15-.16.33-.24.55-.24.16,0,.35.05.57.15l1.08.46c.13.08.26.12.4.12Z"/>
    </g>
    <g>
      <path class="cls-2" d="m632.99,38.7h4.27c.52,0,1.02.22,1.48.66s.7.97.7,1.6c0,.23-.08.43-.25.6-.17.16-.35.24-.55.24-.28,0-.47-.06-.58-.19s-.2-.36-.3-.71c-.09-.35-.31-.52-.63-.52h-4.06c-.2,0-.29.06-.29.19,0,.08.03.17.12.28l6.1,7.78c.29.38.44.78.44,1.21,0,.49-.18.92-.53,1.29-.36.37-.75.56-1.19.56h-4.42c-.59,0-1.1-.22-1.53-.67-.43-.45-.65-.94-.65-1.47,0-.61.29-.92.86-.92.22,0,.41.08.57.24.16.16.23.35.23.56,0,.18.06.32.18.44.12.12.27.18.45.18h4.08c.18,0,.26-.07.26-.21,0-.07-.04-.15-.12-.26l-6.09-7.78c-.29-.37-.43-.77-.43-1.21,0-.51.18-.95.55-1.32.37-.37.8-.56,1.32-.56Z"/>
      <path class="cls-2" d="m643.19,50.86v-11.34c0-.22.08-.41.24-.58.16-.16.35-.24.58-.24s.41.08.58.24c.16.16.24.35.24.58v4.83h5v-4.83c0-.22.08-.41.24-.58.16-.16.35-.24.58-.24s.42.08.58.24c.16.16.24.36.24.6v11.32c0,.22-.08.41-.25.58-.17.16-.36.24-.57.24-.23,0-.43-.08-.59-.24-.16-.16-.23-.35-.23-.58v-4.86h-4.98v4.86c0,.22-.08.41-.25.58-.17.16-.36.24-.59.24s-.41-.08-.58-.24c-.16-.16-.24-.35-.24-.58Z"/>
      <path class="cls-2" d="m656.11,38.7h6.64c.21,0,.41.08.57.24.17.16.25.35.25.58s-.08.42-.24.59-.35.25-.58.25h-2.48v9.68h2.48c.23,0,.42.08.58.24.16.16.24.35.24.58s-.08.42-.24.58c-.16.16-.35.24-.58.24h-6.64c-.23,0-.42-.08-.58-.24-.16-.16-.24-.35-.24-.58s.08-.42.24-.58.35-.24.58-.24h2.52v-9.68h-2.52c-.23,0-.42-.08-.58-.24-.16-.16-.24-.36-.24-.58,0-.23.08-.43.24-.6.16-.16.35-.24.58-.24Z"/>
      <path class="cls-2" d="m667.39,50.86v-12.16h7.44c.21,0,.41.08.57.24.17.16.25.35.25.58s-.08.42-.24.59-.35.25-.58.25h-5.8v2.58h4.16c.23,0,.42.08.58.24.16.16.24.35.24.58s-.08.42-.24.58-.35.24-.58.24h-4.16v6.28c0,.23-.08.42-.24.58s-.35.24-.58.24-.42-.08-.58-.24c-.16-.16-.24-.35-.24-.58Z"/>
      <path class="cls-2" d="m679.45,40.93v-2.22h8.28v2.24c0,.23-.08.42-.24.58-.16.16-.35.24-.58.24s-.42-.08-.59-.24c-.17-.16-.25-.36-.25-.58v-.6h-1.66v10.5c0,.23-.08.42-.24.58-.16.16-.35.24-.58.24-.23,0-.43-.08-.6-.24-.16-.16-.24-.35-.24-.58v-10.5h-1.66v.58c0,.23-.08.42-.24.58s-.35.24-.58.24-.42-.08-.58-.24c-.16-.16-.24-.35-.24-.58Z"/>
      <path class="cls-2" d="m711.89,39.54v12.14h-2.2l-4.42-10.08v9.26c0,.23-.08.42-.24.58s-.35.24-.58.24-.42-.08-.58-.24c-.16-.16-.24-.35-.24-.58v-12.16h2.17l4.43,10.06v-9.22c0-.23.08-.43.25-.59s.36-.25.59-.25.42.08.58.24c.16.16.24.36.24.6Z"/>
      <path class="cls-2" d="m715.69,49.22v-9.68c0-.23.08-.43.24-.59s.35-.25.58-.25.41.08.58.24c.16.16.24.35.24.58v9.7c0,.21.08.4.24.56.16.16.35.24.58.24h3.36c.23,0,.42-.08.58-.23.16-.16.24-.35.24-.57v-9.68c0-.23.08-.43.24-.6.16-.16.35-.24.58-.24s.42.08.58.24c.16.16.24.36.24.6v9.66c0,.68-.24,1.26-.73,1.75-.49.49-1.06.73-1.73.73h-3.36c-.68,0-1.26-.24-1.74-.72-.48-.48-.72-1.06-.72-1.74Z"/>
      <path class="cls-2" d="m731.09,43.8v-.42l-1.7-2.42v9.9c0,.23-.08.42-.24.58s-.35.24-.58.24-.42-.08-.58-.24c-.16-.16-.24-.36-.24-.58v-12.16h2.12l2.01,2.94,2.08-2.94h2.08v12.16c0,.23-.08.42-.25.58-.17.16-.36.24-.59.24s-.41-.08-.58-.24c-.16-.16-.24-.36-.24-.58v-9.86l-1.66,2.34v.46c0,.22-.08.41-.24.58-.16.16-.35.24-.58.24s-.42-.08-.58-.24c-.16-.16-.24-.36-.24-.58Z"/>
      <path class="cls-2" d="m748.13,47.65v.72c0,.9-.32,1.68-.96,2.33-.64.65-1.41.97-2.32.97h-5.02v-12.98h5.02c.91,0,1.68.32,2.32.97.64.64.96,1.42.96,2.33v.69c0,.97-.37,1.8-1.12,2.48.75.7,1.12,1.52,1.12,2.48Zm-1.68-4.98v-.67c0-.46-.16-.85-.48-1.17-.32-.33-.71-.49-1.16-.49h-3.34v3.97h3.34c.44,0,.83-.16,1.15-.48s.49-.71.49-1.16Zm0,5.7v-.68c0-.46-.16-.85-.48-1.17-.32-.33-.71-.49-1.16-.49h-3.32v3.98h3.32c.44,0,.83-.16,1.15-.48s.49-.71.49-1.16Z"/>
      <path class="cls-2" d="m759.39,40.36h-5.8v3.99h2.5c.22,0,.41.08.58.24.16.16.24.35.24.58,0,.23-.08.43-.24.6-.16.16-.35.24-.58.24h-2.5v4.02h5.82c.22,0,.41.08.58.24.16.16.24.35.24.58s-.08.42-.25.58c-.17.16-.36.24-.59.24h-7.44v-12.98h7.44c.23,0,.42.08.59.25s.25.36.25.59-.08.41-.25.58c-.17.16-.36.24-.59.24Z"/>
      <path class="cls-2" d="m764.05,50.86v-12.16h5.8c.67,0,1.25.24,1.73.73.48.49.73,1.07.73,1.75v.94c0,.68-.24,1.27-.72,1.75-.48.49-1.06.73-1.74.73h-1.04l3.35,5.76c.1.17.16.34.16.51,0,.22-.08.41-.25.57-.17.16-.36.24-.58.24-.33,0-.57-.14-.74-.44l-3.84-6.64h-1.19v6.26c0,.23-.08.42-.25.58-.17.16-.36.24-.59.24s-.42-.08-.58-.24c-.16-.16-.24-.35-.24-.58Zm1.64-7.9h4.16c.23,0,.42-.08.58-.24s.24-.35.24-.58v-.96c0-.23-.08-.42-.24-.58-.16-.16-.35-.24-.58-.24h-4.16v2.6Z"/>
    </g>
    <g>
      <path class="cls-2" d="m107.28,51.68v-12.16c0-.22.08-.41.24-.58.16-.16.35-.24.58-.24s.41.08.58.24c.16.16.24.36.24.58v10.52h5.8c.23,0,.42.08.59.24.17.16.25.35.25.58s-.08.42-.25.58c-.17.16-.36.24-.59.24h-7.44Z"/>
      <path class="cls-2" d="m125.43,39.9l1.81,3.68c.25.5.38,1.04.38,1.63s-.13,1.11-.38,1.62l-1.81,3.64c-.38.8-1.04,1.2-1.95,1.2-.44,0-.83-.11-1.18-.34-.35-.23-.61-.51-.79-.86l-1.82-3.64c-.24-.47-.36-1.02-.36-1.62s.12-1.15.36-1.63l1.82-3.68c.41-.8,1.06-1.2,1.96-1.2s1.56.4,1.95,1.2Zm-2.5.82l-1.7,3.46c-.16.35-.23.68-.23,1.02,0,.36.08.7.23,1.03l1.75,3.5c.09.21.26.32.5.32.21,0,.37-.11.48-.32l1.76-3.5c.16-.34.24-.69.24-1.03,0-.36-.08-.7-.24-1.02l-1.72-3.46c-.11-.25-.28-.38-.52-.38s-.42.13-.55.38Z"/>
      <path class="cls-2" d="m135.94,50.04h2.96c.23,0,.43.08.59.24.17.16.25.35.25.58s-.08.42-.25.58c-.17.16-.36.24-.59.24h-3.07c-.39,0-.79-.12-1.21-.37-.42-.25-.71-.52-.87-.83l-1.89-3.66c-.25-.53-.38-1.07-.38-1.62,0-.61.12-1.14.36-1.59l1.91-3.62c.18-.34.47-.64.85-.89.38-.26.75-.39,1.11-.39h3.24c.23,0,.42.08.58.24.16.16.24.36.24.58s-.08.43-.24.59-.35.25-.58.25h-3.12c-.26,0-.47.15-.63.46l-1.82,3.4c-.14.27-.21.58-.21.95,0,.38.08.72.23,1.02l1.74,3.34c.16.35.43.52.8.52Z"/>
      <path class="cls-2" d="m143.57,50.54l3.3-11.23c.13-.41.41-.61.83-.61s.67.17.77.52l3.27,11.4c.03.08.04.17.04.24,0,.23-.08.42-.23.58-.16.16-.33.24-.54.24-.43,0-.7-.2-.82-.6l-.65-2.23h-3.76l-.71,2.39c-.02.1-.1.2-.25.3-.14.09-.3.14-.47.14-.24,0-.44-.08-.6-.24-.16-.16-.24-.36-.24-.6,0-.1.02-.2.05-.3Zm4.12-8.04l-1.41,4.7h2.78l-1.37-4.7Z"/>
      <path class="cls-2" d="m155.6,51.68v-12.16c0-.22.08-.41.24-.58.16-.16.35-.24.58-.24s.41.08.58.24c.16.16.24.36.24.58v10.52h5.8c.23,0,.42.08.59.24.17.16.25.35.25.58s-.08.42-.25.58c-.17.16-.36.24-.59.24h-7.44Z"/>
      <path class="cls-2" d="m179.74,40.94v-2.22h8.28v2.24c0,.23-.08.42-.24.58-.16.16-.35.24-.58.24s-.42-.08-.59-.24c-.17-.16-.25-.35-.25-.58v-.6h-1.66v10.5c0,.23-.08.42-.24.58-.16.16-.35.24-.58.24-.23,0-.43-.08-.6-.24-.16-.16-.24-.35-.24-.58v-10.5h-1.66v.58c0,.23-.08.42-.24.58-.16.16-.35.24-.58.24s-.42-.08-.58-.24-.24-.35-.24-.58Z"/>
      <path class="cls-2" d="m192.64,38.7h6.64c.21,0,.41.08.57.24.17.16.25.36.25.58s-.08.43-.24.59-.35.25-.58.25h-2.48v9.68h2.48c.23,0,.42.08.58.24s.24.35.24.58-.08.42-.24.58c-.16.16-.35.24-.58.24h-6.64c-.23,0-.42-.08-.58-.24s-.24-.35-.24-.58.08-.42.24-.58c.16-.16.35-.24.58-.24h2.52v-9.68h-2.52c-.23,0-.42-.08-.58-.24-.16-.16-.24-.35-.24-.58,0-.23.08-.43.24-.6.16-.16.35-.24.58-.24Z"/>
      <path class="cls-2" d="m207.22,43.8v-.42l-1.7-2.42v9.9c0,.23-.08.42-.24.58-.16.16-.35.24-.58.24s-.42-.08-.58-.24c-.16-.16-.24-.35-.24-.58v-12.16h2.12l2.01,2.94,2.08-2.94h2.08v12.16c0,.23-.08.42-.25.58-.17.16-.36.24-.59.24s-.41-.08-.58-.24c-.16-.16-.24-.35-.24-.58v-9.86l-1.66,2.34v.46c0,.22-.08.41-.24.58-.16.16-.35.24-.58.24s-.42-.08-.58-.24c-.16-.16-.24-.35-.24-.58Z"/>
      <path class="cls-2" d="m223.44,40.36h-5.8v3.99h2.5c.22,0,.41.08.58.24.16.16.24.36.24.58,0,.23-.08.43-.24.6-.16.16-.35.24-.58.24h-2.5v4.02h5.82c.22,0,.41.08.58.24.16.16.24.35.24.58s-.08.42-.25.58c-.17.16-.36.24-.59.24h-7.44v-12.98h7.44c.23,0,.42.08.59.25s.25.36.25.59-.08.41-.25.58c-.17.16-.36.24-.59.24Z"/>
    </g>
    <line class="cls-4" x1="645.22" y1="61.15" x2="815.06" y2="61.15"/>
    <g>
      <path class="cls-2" d="m1517.03,40.14v12.14h-2.2l-4.42-10.08v9.26c0,.23-.08.42-.24.58s-.35.24-.58.24-.42-.08-.58-.24-.24-.35-.24-.58v-12.16h2.17l4.43,10.06v-9.22c0-.23.08-.42.25-.59s.36-.25.59-.25.42.08.58.24.24.36.24.6Z"/>
      <path class="cls-2" d="m1528.29,40.96h-5.8v3.99h2.5c.22,0,.41.08.58.24s.24.35.24.58c0,.23-.08.43-.24.6s-.35.24-.58.24h-2.5v4.02h5.82c.22,0,.41.08.58.24s.24.35.24.58-.08.42-.25.58-.36.24-.59.24h-7.44v-12.98h7.44c.23,0,.42.08.59.25s.25.36.25.59-.08.41-.25.58-.36.24-.59.24Z"/>
      <path class="cls-2" d="m1537.21,47.43l-2.62,4.46c-.15.26-.38.39-.69.39-.23,0-.43-.08-.6-.25s-.25-.35-.25-.56c0-.16.05-.32.15-.48l3.06-5.2-3-5.14c-.12-.2-.18-.39-.18-.56,0-.21.08-.39.24-.55s.35-.24.56-.24c.32,0,.55.13.7.39l2.64,4.44,2.6-4.42c.16-.27.39-.41.69-.41.23,0,.43.08.6.24.17.16.25.35.25.57,0,.15-.04.3-.13.44l-3.08,5.25,3.06,5.25c.08.13.12.27.12.42,0,.23-.08.43-.24.58-.16.16-.35.23-.58.23-.32,0-.56-.13-.71-.39l-2.6-4.46Z"/>
      <path class="cls-2" d="m1544.99,41.54v-2.22h8.28v2.24c0,.23-.08.42-.24.58s-.35.24-.58.24-.42-.08-.59-.24-.25-.35-.25-.58v-.6h-1.66v10.5c0,.23-.08.42-.24.58s-.35.24-.58.24c-.23,0-.43-.08-.6-.24s-.24-.35-.24-.58v-10.5h-1.66v.58c0,.23-.08.42-.24.58s-.35.24-.58.24-.42-.08-.58-.24-.24-.35-.24-.58Z"/>
      <path class="cls-2" d="m1569.22,51.14l3.3-11.23c.13-.41.41-.61.83-.61s.66.17.77.52l3.27,11.4c.03.08.04.17.04.24,0,.23-.08.42-.23.58s-.33.24-.54.24c-.43,0-.7-.2-.82-.6l-.65-2.23h-3.76l-.71,2.38c-.02.1-.1.2-.25.3-.14.09-.3.14-.47.14-.24,0-.44-.08-.6-.24s-.24-.36-.24-.6c0-.1.02-.2.05-.3Zm4.12-8.04l-1.41,4.7h2.78l-1.37-4.7Z"/>
      <path class="cls-2" d="m1582.05,39.3h6.64c.21,0,.41.08.57.24s.25.35.25.58-.08.42-.24.59-.35.25-.58.25h-2.48v9.68h2.48c.23,0,.42.08.58.24s.24.35.24.58-.08.42-.24.58-.35.24-.58.24h-6.64c-.23,0-.42-.08-.58-.24s-.24-.35-.24-.58.08-.42.24-.58.35-.24.58-.24h2.52v-9.68h-2.52c-.23,0-.42-.08-.58-.24s-.24-.35-.24-.58c0-.23.08-.43.24-.6s.35-.24.58-.24Z"/>
      <path class="cls-2" d="m1593.35,51.46v-12.16h5.8c.67,0,1.25.24,1.73.73s.73,1.07.73,1.75v.94c0,.68-.24,1.27-.72,1.75s-1.06.73-1.74.73h-1.04l3.35,5.76c.1.17.16.34.16.51,0,.22-.08.41-.25.57s-.36.24-.58.24c-.33,0-.57-.14-.74-.44l-3.84-6.64h-1.19v6.26c0,.23-.08.42-.25.58s-.36.24-.59.24-.42-.08-.58-.24-.24-.35-.24-.58Zm1.64-7.9h4.16c.23,0,.42-.08.58-.24s.24-.35.24-.58v-.96c0-.23-.08-.42-.24-.58s-.35-.24-.58-.24h-4.16v2.6Z"/>
      <path class="cls-2" d="m1609.91,50.64h2.96c.23,0,.43.08.59.24s.25.35.25.58-.08.42-.25.58-.36.24-.59.24h-3.07c-.39,0-.79-.12-1.21-.37s-.71-.52-.87-.83l-1.89-3.66c-.25-.53-.38-1.07-.38-1.62,0-.61.12-1.14.36-1.59l1.91-3.62c.18-.34.47-.64.85-.89s.75-.39,1.11-.39h3.24c.23,0,.42.08.58.24s.24.35.24.58-.08.42-.24.59-.35.25-.58.25h-3.12c-.26,0-.47.15-.63.46l-1.82,3.4c-.14.27-.21.58-.21.95,0,.38.08.72.23,1.02l1.74,3.34c.16.35.43.52.8.52Z"/>
      <path class="cls-2" d="m1617.51,51.46v-12.16h5.8c.67,0,1.25.24,1.73.73s.73,1.07.73,1.75v.94c0,.68-.24,1.27-.72,1.75s-1.06.73-1.74.73h-1.04l3.35,5.76c.1.17.16.34.16.51,0,.22-.08.41-.25.57s-.36.24-.58.24c-.33,0-.57-.14-.74-.44l-3.84-6.64h-1.19v6.26c0,.23-.08.42-.25.58s-.36.24-.59.24-.42-.08-.58-.24-.24-.35-.24-.58Zm1.64-7.9h4.16c.23,0,.42-.08.58-.24s.24-.35.24-.58v-.96c0-.23-.08-.42-.24-.58s-.35-.24-.58-.24h-4.16v2.6Z"/>
      <path class="cls-2" d="m1629.62,51.14l3.3-11.23c.13-.41.41-.61.83-.61s.66.17.77.52l3.27,11.4c.03.08.04.17.04.24,0,.23-.08.42-.23.58s-.33.24-.54.24c-.43,0-.7-.2-.82-.6l-.65-2.23h-3.76l-.71,2.38c-.02.1-.1.2-.25.3-.14.09-.3.14-.47.14-.24,0-.44-.08-.6-.24s-.24-.36-.24-.6c0-.1.02-.2.05-.3Zm4.12-8.04l-1.41,4.7h2.78l-1.37-4.7Z"/>
      <path class="cls-2" d="m1641.65,51.46v-12.16h7.44c.21,0,.41.08.57.24s.25.35.25.58-.08.42-.24.59-.35.25-.58.25h-5.8v2.58h4.16c.23,0,.42.08.58.24s.24.35.24.58-.08.42-.24.58-.35.24-.58.24h-4.16v6.28c0,.23-.08.42-.24.58s-.35.24-.58.24-.42-.08-.58-.24-.24-.35-.24-.58Z"/>
      <path class="cls-2" d="m1653.71,41.54v-2.22h8.28v2.24c0,.23-.08.42-.24.58s-.35.24-.58.24-.42-.08-.59-.24-.25-.35-.25-.58v-.6h-1.66v10.5c0,.23-.08.42-.24.58s-.35.24-.58.24c-.23,0-.43-.08-.6-.24s-.24-.35-.24-.58v-10.5h-1.66v.58c0,.23-.08.42-.24.58s-.35.24-.58.24-.42-.08-.58-.24-.24-.35-.24-.58Z"/>
      <path class="cls-2" d="m1677.94,51.14l3.3-11.23c.13-.41.41-.61.83-.61s.66.17.77.52l3.27,11.4c.03.08.04.17.04.24,0,.23-.08.42-.23.58s-.33.24-.54.24c-.43,0-.7-.2-.82-.6l-.65-2.23h-3.76l-.71,2.38c-.02.1-.1.2-.25.3-.14.09-.3.14-.47.14-.24,0-.44-.08-.6-.24s-.24-.36-.24-.6c0-.1.02-.2.05-.3Zm4.12-8.04l-1.41,4.7h2.78l-1.37-4.7Z"/>
      <path class="cls-2" d="m1689.99,51.46v-12.16h5.8c.67,0,1.25.24,1.73.73s.73,1.07.73,1.75v.94c0,.68-.24,1.27-.72,1.75s-1.06.73-1.74.73h-1.04l3.35,5.76c.1.17.16.34.16.51,0,.22-.08.41-.25.57s-.36.24-.58.24c-.33,0-.57-.14-.74-.44l-3.84-6.64h-1.19v6.26c0,.23-.08.42-.25.58s-.36.24-.59.24-.42-.08-.58-.24-.24-.35-.24-.58Zm1.64-7.9h4.16c.23,0,.42-.08.58-.24s.24-.35.24-.58v-.96c0-.23-.08-.42-.24-.58s-.35-.24-.58-.24h-4.16v2.6Z"/>
      <path class="cls-2" d="m1702.07,51.46v-12.16h5.8c.67,0,1.25.24,1.73.73s.73,1.07.73,1.75v.94c0,.68-.24,1.27-.72,1.75s-1.06.73-1.74.73h-1.04l3.35,5.76c.1.17.16.34.16.51,0,.22-.08.41-.25.57s-.36.24-.58.24c-.33,0-.57-.14-.74-.44l-3.84-6.64h-1.19v6.26c0,.23-.08.42-.25.58s-.36.24-.59.24-.42-.08-.58-.24-.24-.35-.24-.58Zm1.64-7.9h4.16c.23,0,.42-.08.58-.24s.24-.35.24-.58v-.96c0-.23-.08-.42-.24-.58s-.35-.24-.58-.24h-4.16v2.6Z"/>
      <path class="cls-2" d="m1714.93,39.3h6.64c.21,0,.41.08.57.24s.25.35.25.58-.08.42-.24.59-.35.25-.58.25h-2.48v9.68h2.48c.23,0,.42.08.58.24s.24.35.24.58-.08.42-.24.58-.35.24-.58.24h-6.64c-.23,0-.42-.08-.58-.24s-.24-.35-.24-.58.08-.42.24-.58.35-.24.58-.24h2.52v-9.68h-2.52c-.23,0-.42-.08-.58-.24s-.24-.35-.24-.58c0-.23.08-.43.24-.6s.35-.24.58-.24Z"/>
      <path class="cls-2" d="m1734.51,40.14v3.02l-3.34,8.5c-.17.41-.44.62-.8.62-.38,0-.66-.21-.82-.62l-3.32-8.51v-3.02c0-.23.08-.43.24-.6.16-.16.35-.24.58-.24s.42.08.58.24.24.36.24.6v2.67l2.5,6.37,2.5-6.35v-2.69c0-.23.08-.43.24-.6.16-.16.35-.24.58-.24s.42.08.58.24c.16.16.24.36.24.6Z"/>
      <path class="cls-2" d="m1738.34,51.14l3.3-11.23c.13-.41.41-.61.83-.61s.66.17.77.52l3.27,11.4c.03.08.04.17.04.24,0,.23-.08.42-.23.58s-.33.24-.54.24c-.43,0-.7-.2-.82-.6l-.65-2.23h-3.76l-.71,2.38c-.02.1-.1.2-.25.3-.14.09-.3.14-.47.14-.24,0-.44-.08-.6-.24s-.24-.36-.24-.6c0-.1.02-.2.05-.3Zm4.12-8.04l-1.41,4.7h2.78l-1.37-4.7Z"/>
      <path class="cls-2" d="m1750.37,52.28v-12.16c0-.22.08-.41.24-.58s.35-.24.58-.24.41.08.58.24.24.35.24.58v10.52h5.8c.23,0,.42.08.59.24s.25.35.25.58-.08.42-.25.58-.36.24-.59.24h-7.44Z"/>
    </g>
  </g>
  <g id="_nextArrivalValue" data-name="#nextArrivalValue">
    <text class="cls-1" transform="translate(1780.65 52.28)"><tspan x="0" y="0">00:00</tspan></text>
    <rect class="cls-5" x="1768.88" y="35.95" width="79.33" height="20.12"/>
    <rect class="cls-5" x="1434.22" y="35.83" width="52.02" height="20.12"/>
    <rect class="cls-5" x="236.12" y="29.25" width="109.08" height="28.43"/>
    <rect class="cls-5" x="763.34" y="35.14" width="45.27" height="20.12"/>
  </g>
  <g id="id_shiftValue_" data-name="id=&amp;quot;shiftValue&amp;quot;">
    <text class="cls-1" transform="translate(791.02 51.47)"><tspan x="0" y="0">1</tspan></text>
  </g>
  <g id="id_peopleValue_" data-name="id=&amp;quot;peopleValue&amp;quot;">
    <text class="cls-1" transform="translate(1443.54 52.17)"><tspan x="0" y="0">000</tspan></text>
  </g>
  <g id="id_clockValue_" data-name="id=&amp;quot;clockValue&amp;quot;">
    <text class="cls-1" transform="translate(244.72 52.29)"><tspan x="0" y="0">09:00 AM</tspan></text>
  </g>
</svg>