<?xml version="1.0" encoding="UTF-8"?>
<svg xmlns="http://www.w3.org/2000/svg" viewBox="0 0 1938 972">
  <defs>
    <style>
      .cls-1 {
        stroke: #231f20;
        stroke-miterlimit: 10;
      }

      .cls-1, .cls-2 {
        fill: none;
      }

      .cls-3, .cls-2 {
        stroke-width: 0px;
      }

      .cls-4 {
        font-family: OCRAExtended, 'OCR A Extended';
        font-size: 20px;
      }
    </style>
  </defs>
  <g id="STATIC_UI">
    <rect class="cls-1" x="563.14" y="245.12" width="811.72" height="481.76"/>
    <line class="cls-1" x1="563.14" y1="318.46" x2="1374.86" y2="318.46"/>
    <line class="cls-1" x1="563.14" y1="661.35" x2="1374.86" y2="661.35"/>
    <rect class="cls-1" x="1205.29" y="671.99" width="156.65" height="45.13"/>
  </g>
  <g id="Layer_1" data-name="Layer 1">
    <g>
      <path class="cls-3" d="m598.36,686.68h4.27c.52,0,1.02.22,1.48.66s.7.97.7,1.6c0,.23-.08.43-.25.6s-.35.24-.55.24c-.28,0-.47-.06-.58-.19s-.2-.36-.3-.71c-.09-.34-.3-.52-.63-.52h-4.06c-.2,0-.29.06-.29.19,0,.08.03.17.12.28l6.1,7.78c.29.38.44.78.44,1.21,0,.49-.18.92-.53,1.29s-.75.56-1.19.56h-4.42c-.59,0-1.1-.22-1.53-.67s-.65-.94-.65-1.47c0-.61.29-.92.86-.92.22,0,.41.08.57.24s.23.35.23.56c0,.18.06.32.18.44s.27.18.45.18h4.08c.18,0,.26-.07.26-.21,0-.07-.04-.15-.12-.26l-6.09-7.78c-.29-.37-.43-.77-.43-1.21,0-.51.18-.95.55-1.32.37-.37.81-.56,1.32-.56Z"/>
      <path class="cls-3" d="m608.55,698.83v-11.34c0-.22.08-.41.24-.58s.35-.24.58-.24.41.08.58.24.24.35.24.58v4.83h5v-4.83c0-.22.08-.41.24-.58s.35-.24.58-.24.42.08.58.24.24.36.24.6v11.32c0,.22-.08.41-.25.58s-.36.24-.57.24c-.23,0-.43-.08-.59-.24s-.23-.35-.23-.58v-4.86h-4.98v4.86c0,.22-.08.41-.25.58s-.36.24-.59.24-.41-.08-.58-.24-.24-.35-.24-.58Z"/>
      <path class="cls-3" d="m621.47,686.68h6.64c.21,0,.41.08.57.24s.25.35.25.58-.08.42-.24.59-.35.25-.58.25h-2.48v9.68h2.48c.23,0,.42.08.58.24s.24.35.24.58-.08.42-.24.58-.35.24-.58.24h-6.64c-.23,0-.42-.08-.58-.24s-.24-.35-.24-.58.08-.42.24-.58.35-.24.58-.24h2.52v-9.68h-2.52c-.23,0-.42-.08-.58-.24s-.24-.35-.24-.58c0-.23.08-.43.24-.6s.35-.24.58-.24Z"/>
      <path class="cls-3" d="m632.75,698.83v-12.16h7.44c.21,0,.41.08.57.24s.25.35.25.58-.08.42-.24.59-.35.25-.58.25h-5.8v2.58h4.16c.23,0,.42.08.58.24s.24.35.24.58-.08.42-.24.58-.35.24-.58.24h-4.16v6.28c0,.23-.08.42-.24.58s-.35.24-.58.24-.42-.08-.58-.24-.24-.35-.24-.58Z"/>
      <path class="cls-3" d="m644.81,688.91v-2.22h8.28v2.24c0,.23-.08.42-.24.58s-.35.24-.58.24-.42-.08-.59-.24-.25-.35-.25-.58v-.6h-1.66v10.5c0,.23-.08.42-.24.58s-.35.24-.58.24c-.23,0-.43-.08-.6-.24s-.24-.35-.24-.58v-10.5h-1.66v.58c0,.23-.08.42-.24.58s-.35.24-.58.24-.42-.08-.58-.24-.24-.35-.24-.58Z"/>
      <path class="cls-3" d="m677.25,687.51v12.14h-2.2l-4.42-10.08v9.26c0,.23-.08.42-.24.58s-.35.24-.58.24-.42-.08-.58-.24-.24-.35-.24-.58v-12.16h2.17l4.43,10.06v-9.22c0-.23.08-.42.25-.59s.36-.25.59-.25.42.08.58.24.24.36.24.6Z"/>
      <path class="cls-3" d="m681.05,697.19v-9.68c0-.23.08-.42.24-.59s.35-.25.58-.25.41.08.58.24.24.35.24.58v9.7c0,.21.08.4.24.56s.35.24.58.24h3.36c.23,0,.42-.08.58-.23s.24-.34.24-.57v-9.68c0-.23.08-.43.24-.6s.35-.24.58-.24.42.08.58.24.24.36.24.6v9.66c0,.68-.24,1.26-.73,1.75s-1.06.73-1.73.73h-3.36c-.68,0-1.26-.24-1.74-.72s-.72-1.06-.72-1.74Z"/>
      <path class="cls-3" d="m696.45,691.77v-.42l-1.7-2.42v9.9c0,.23-.08.42-.24.58s-.35.24-.58.24-.42-.08-.58-.24-.24-.35-.24-.58v-12.16h2.12l2.02,2.94,2.08-2.94h2.08v12.16c0,.23-.08.42-.25.58s-.36.24-.59.24-.41-.08-.58-.24-.24-.35-.24-.58v-9.86l-1.66,2.34v.46c0,.22-.08.41-.24.58s-.35.24-.58.24-.42-.08-.58-.24-.24-.35-.24-.58Z"/>
      <path class="cls-3" d="m713.49,695.63v.72c0,.91-.32,1.68-.96,2.33s-1.41.97-2.32.97h-5.02v-12.98h5.02c.9,0,1.68.32,2.32.97s.96,1.42.96,2.33v.69c0,.97-.37,1.8-1.12,2.48.75.7,1.12,1.52,1.12,2.48Zm-1.68-4.98v-.67c0-.46-.16-.85-.48-1.17s-.71-.49-1.16-.49h-3.34v3.97h3.34c.44,0,.83-.16,1.15-.48s.49-.71.49-1.16Zm0,5.7v-.68c0-.46-.16-.85-.48-1.17s-.71-.49-1.16-.49h-3.32v3.98h3.32c.44,0,.83-.16,1.15-.48s.49-.71.49-1.16Z"/>
      <path class="cls-3" d="m724.75,688.34h-5.8v3.99h2.5c.22,0,.41.08.58.24s.24.35.24.58c0,.23-.08.43-.24.6s-.35.24-.58.24h-2.5v4.02h5.82c.22,0,.41.08.58.24s.24.35.24.58-.08.42-.25.58-.36.24-.59.24h-7.44v-12.98h7.44c.23,0,.42.08.59.25s.25.36.25.59-.08.41-.25.58-.36.24-.59.24Z"/>
      <path class="cls-3" d="m729.41,698.83v-12.16h5.8c.67,0,1.25.24,1.73.73s.73,1.07.73,1.75v.94c0,.68-.24,1.27-.72,1.75s-1.06.73-1.74.73h-1.04l3.35,5.76c.1.17.16.34.16.51,0,.22-.08.41-.25.57-.17.16-.36.24-.58.24-.33,0-.57-.14-.74-.44l-3.84-6.64h-1.19v6.26c0,.23-.08.42-.25.58s-.36.24-.59.24-.42-.08-.58-.24-.24-.35-.24-.58Zm1.64-7.9h4.16c.23,0,.42-.08.58-.24s.24-.35.24-.58v-.96c0-.23-.08-.42-.24-.58s-.35-.24-.58-.24h-4.16v2.6Z"/>
      <path class="cls-3" d="m753.51,698.05v-9.81c0-.43.16-.8.47-1.11s.68-.47,1.11-.47h5.12c.42,0,.79.16,1.1.47s.46.68.46,1.11v9.81c0,.44-.15.81-.46,1.12s-.68.46-1.12.46h-5.1c-.44,0-.82-.15-1.12-.46s-.46-.68-.46-1.12Zm6.64-.06v-9.68h-5v9.68h5Z"/>
      <path class="cls-3" d="m766.39,697.99h2.52v-9.68h-2.48c-.23,0-.42-.08-.58-.24s-.24-.35-.24-.58.08-.42.24-.58.35-.24.58-.24h4.12v11.32h1.64v-3.42c0-.22.08-.41.24-.58s.35-.24.58-.24.42.08.58.24.24.35.24.58v4.24c0,.23-.08.42-.24.58s-.35.24-.58.24h-6.62c-.23,0-.42-.08-.58-.25s-.24-.36-.24-.59.08-.41.24-.57.35-.23.58-.23Z"/>
    </g>
    <g>
      <path class="cls-3" d="m604.39,280.45v10.92l.96,1.6h1.37l1-1.64v-19.36c0-.46.17-.85.5-1.18s.73-.5,1.18-.5.83.16,1.15.49c.33.33.49.71.49,1.15v19.92c0,.25-.14.59-.41,1.04l-1.52,2.52c-.31.56-.79.84-1.43.84h-3.09c-.98,0-1.6-.44-1.88-1.33-.3.89-.9,1.33-1.8,1.33h-2.89c-.83,0-1.43-.31-1.8-.92l-1.41-2.36c-.26-.43-.39-.8-.39-1.11v-19.88c0-.46.17-.85.5-1.18s.73-.5,1.18-.5c.43,0,.8.17,1.12.5.32.33.48.73.48,1.18v19.43l.96,1.56h1.41l1.04-1.64v-10.88c0-.46.16-.84.48-1.16.32-.32.71-.48,1.16-.48s.84.16,1.16.48c.32.32.48.71.48,1.16Z"/>
      <path class="cls-3" d="m630.78,272.7l3.61,7.36c.51,1,.76,2.09.76,3.26s-.25,2.23-.76,3.24l-3.61,7.29c-.77,1.6-2.07,2.4-3.91,2.4-.87,0-1.66-.23-2.35-.68-.7-.46-1.22-1.03-1.57-1.72l-3.63-7.29c-.48-.95-.72-2.03-.72-3.24s.24-2.3.72-3.26l3.63-7.36c.82-1.6,2.13-2.4,3.93-2.4s3.12.8,3.91,2.4Zm-5,1.64l-3.4,6.91c-.31.69-.47,1.37-.47,2.03,0,.72.16,1.4.47,2.05l3.5,6.99c.18.43.51.64,1,.64.42,0,.74-.21.96-.64l3.52-6.99c.33-.69.49-1.37.49-2.05,0-.72-.16-1.39-.49-2.03l-3.44-6.91c-.22-.51-.57-.76-1.04-.76s-.83.25-1.09.76Z"/>
      <path class="cls-3" d="m642.83,294.61v-24.32h11.6c1.34,0,2.5.49,3.47,1.46.97.98,1.46,2.14,1.46,3.5v1.88c0,1.37-.48,2.54-1.45,3.51-.96.97-2.12,1.46-3.48,1.46h-2.09l6.7,11.52c.21.34.31.68.31,1.02,0,.44-.17.82-.51,1.14-.34.32-.73.48-1.16.48-.65,0-1.15-.29-1.49-.88l-7.68-13.29h-2.37v12.52c0,.46-.17.84-.5,1.16s-.73.48-1.18.48-.84-.16-1.16-.48c-.32-.32-.48-.71-.48-1.16Zm3.28-15.8h8.32c.46,0,.84-.16,1.16-.48.32-.32.48-.71.48-1.16v-1.91c0-.46-.16-.84-.48-1.16-.32-.32-.71-.48-1.16-.48h-8.32v5.2Z"/>
      <path class="cls-3" d="m666.91,294.61v-22.64c0-.47.16-.87.48-1.19.32-.33.71-.49,1.16-.49s.84.16,1.16.48c.32.32.48.71.48,1.16v7.76l10.51-8.97c.36-.3.77-.44,1.23-.43.46,0,.84.17,1.15.5s.47.72.47,1.16c0,.45-.19.82-.54,1.12l-11.9,10.12,11.92,10.3c.33.27.49.62.48,1.06,0,.43-.16.82-.48,1.18-.32.35-.71.53-1.18.53-.44,0-.84-.15-1.19-.45l-10.47-9.01v7.82c0,.46-.16.84-.48,1.16-.32.32-.71.48-1.16.48s-.83-.16-1.15-.48c-.33-.32-.49-.71-.49-1.16Z"/>
      <path class="cls-3" d="m727.42,272.7l3.61,7.36c.51,1,.76,2.09.76,3.26s-.25,2.23-.76,3.24l-3.61,7.29c-.77,1.6-2.07,2.4-3.91,2.4-.87,0-1.66-.23-2.35-.68-.7-.46-1.22-1.03-1.57-1.72l-3.63-7.29c-.48-.95-.72-2.03-.72-3.24s.24-2.3.72-3.26l3.63-7.36c.82-1.6,2.13-2.4,3.93-2.4s3.12.8,3.91,2.4Zm-5,1.64l-3.4,6.91c-.31.69-.47,1.37-.47,2.03,0,.72.16,1.4.47,2.05l3.5,6.99c.18.43.51.64,1,.64.42,0,.74-.21.96-.64l3.52-6.99c.33-.69.49-1.37.49-2.05,0-.72-.16-1.39-.49-2.03l-3.44-6.91c-.22-.51-.57-.76-1.04-.76s-.83.25-1.09.76Z"/>
      <path class="cls-3" d="m739.47,294.61v-24.32h11.6c1.34,0,2.5.49,3.47,1.46.97.98,1.46,2.14,1.46,3.5v1.88c0,1.37-.48,2.54-1.45,3.51-.96.97-2.12,1.46-3.48,1.46h-2.09l6.7,11.52c.21.34.31.68.31,1.02,0,.44-.17.82-.51,1.14-.34.32-.73.48-1.16.48-.65,0-1.15-.29-1.49-.88l-7.68-13.29h-2.37v12.52c0,.46-.17.84-.5,1.16s-.73.48-1.18.48-.84-.16-1.16-.48c-.32-.32-.48-.71-.48-1.16Zm3.28-15.8h8.32c.46,0,.84-.16,1.16-.48.32-.32.48-.71.48-1.16v-1.91c0-.46-.16-.84-.48-1.16-.32-.32-.71-.48-1.16-.48h-8.32v5.2Z"/>
      <path class="cls-3" d="m765.19,270.3h6.48c.85.01,1.67.29,2.47.82s1.39,1.18,1.77,1.93l3.24,6.56c.61,1.18.92,2.42.92,3.71,0,1.2-.33,2.43-.98,3.69l-3.26,6.48c-.42.83-1.02,1.5-1.8,2s-1.65.75-2.62.75h-6.27c-.46,0-.84-.16-1.16-.49-.32-.33-.48-.71-.48-1.15s.16-.85.48-1.18c.32-.33.71-.5,1.16-.5h1.72v-19.32h-1.68c-.46,0-.84-.17-1.16-.5-.32-.33-.48-.73-.48-1.18s.16-.83.48-1.15c.32-.33.71-.49,1.16-.49Zm4.96,3.32v19.36h1.15c.73,0,1.27-.36,1.64-1.08l3.24-6.45c.4-.85.61-1.55.61-2.13,0-.71-.16-1.39-.49-2.03l-3.36-6.68c-.35-.66-.92-1-1.72-1h-1.07Z"/>
      <path class="cls-3" d="m802.64,273.62h-11.6v7.99h5c.44,0,.83.16,1.15.49.33.33.49.71.49,1.15,0,.47-.16.87-.48,1.19-.32.33-.71.49-1.16.49h-5v8.05h11.64c.44,0,.83.16,1.15.48.33.32.49.71.49,1.16s-.17.84-.5,1.16-.73.48-1.18.48h-14.88v-25.96h14.88c.46,0,.85.17,1.18.5s.5.73.5,1.18-.17.83-.5,1.15-.73.49-1.18.49Z"/>
      <path class="cls-3" d="m811.95,294.61v-24.32h11.6c1.34,0,2.5.49,3.47,1.46.97.98,1.46,2.14,1.46,3.5v1.88c0,1.37-.48,2.54-1.45,3.51-.96.97-2.12,1.46-3.48,1.46h-2.09l6.7,11.52c.21.34.31.68.31,1.02,0,.44-.17.82-.51,1.14-.34.32-.73.48-1.16.48-.65,0-1.15-.29-1.49-.88l-7.68-13.29h-2.37v12.52c0,.46-.17.84-.5,1.16s-.73.48-1.18.48-.84-.16-1.16-.48c-.32-.32-.48-.71-.48-1.16Zm3.28-15.8h8.32c.46,0,.84-.16,1.16-.48.32-.32.48-.71.48-1.16v-1.91c0-.46-.16-.84-.48-1.16-.32-.32-.71-.48-1.16-.48h-8.32v5.2Z"/>
      <path class="cls-3" d="m860.16,293.05v-19.63c0-.86.31-1.6.94-2.23s1.37-.94,2.23-.94h10.23c.85,0,1.58.31,2.2.94.62.62.93,1.37.93,2.23v19.63c0,.87-.31,1.62-.93,2.24-.62.62-1.36.93-2.24.93h-10.2c-.89,0-1.63-.31-2.25-.93-.61-.62-.92-1.36-.92-2.24Zm13.28-.12v-19.36h-10v19.36h10Z"/>
      <path class="cls-3" d="m885.92,292.93h5.04v-19.36h-4.96c-.46,0-.84-.16-1.16-.48-.32-.32-.48-.71-.48-1.16s.16-.84.48-1.16c.32-.32.71-.48,1.16-.48h8.24v22.64h3.28v-6.84c0-.44.16-.83.48-1.15.32-.33.71-.49,1.16-.49s.84.16,1.16.48c.32.32.48.71.48,1.16v8.48c0,.46-.16.84-.48,1.16-.32.32-.71.48-1.16.48h-13.24c-.46,0-.84-.17-1.16-.5-.32-.33-.48-.73-.48-1.18s.16-.82.48-1.13c.32-.31.71-.47,1.16-.47Z"/>
      <path class="cls-3" d="m915.16,274.57h3.28c.47,0,.87.18,1.19.53.33.35.49.72.49,1.11v2.83c0,.44-.17.83-.5,1.15s-.71.49-1.14.49h-3.36c-.46,0-.84-.16-1.14-.47-.31-.31-.46-.7-.46-1.17v-2.83c0-.44.16-.83.48-1.15.32-.33.71-.49,1.16-.49Zm0,11.33h3.28c.46,0,.85.16,1.18.48s.5.71.5,1.16v2.79c0,.46-.16.85-.49,1.18-.33.33-.71.5-1.15.5h-3.36c-.46,0-.84-.16-1.14-.49-.31-.33-.46-.71-.46-1.15v-2.83c0-.47.16-.86.48-1.17.32-.31.71-.47,1.16-.47Z"/>
    </g>
  </g>
  <g id="_begin_shift_button" data-name="#begin shift button">
    <rect class="cls-2" x="1213.59" y="675.73" width="142.75" height="34.92"/>
    <text class="cls-4" transform="translate(1217.82 701.7)"><tspan x="0" y="0">BEGIN SHIFT</tspan></text>
  </g>
  <g id="_line1" data-name="#line1">
    <text class="cls-4" transform="translate(590.46 370.08)"><tspan x="0" y="0">IN THE DESERT, SURPLUS AIRCRAFT SIT IDLE, AWAITING PROCESSSING </tspan></text>
  </g>
  <g id="_line2" data-name="#line2">
    <text class="cls-4" transform="translate(590.46 394.12)"><tspan x="0" y="0">ENGINES SEALED, WINDOWS PAINTED WHITE AGAINST THE SUN,</tspan></text>
  </g>
  <g id="_line3" data-name="#line3">
    <text class="cls-4" transform="translate(590.46 418.17)"><tspan x="0" y="0">INVENTORY EXCEEDS STORAGE CAPACITY.</tspan></text>
  </g>
  <g id="_line4" data-name="#line4">
    <text class="cls-4" transform="translate(590.46 470.47)"><tspan x="0" y="0">IN THE CITIES, EVICTION LINES EXTENDS BEYOND CONTAINMETN.</tspan></text>
  </g>
  <g id="_line5" data-name="#line5">
    <text class="cls-4" transform="translate(590.46 494.52)"><tspan x="0" y="0">FAMILIES ARE RECORDED AS DATA. UNITS EXCEED ALLOCATION.</tspan></text>
  </g>
  <g id="_line6" data-name="#line6">
    <text class="cls-4" transform="translate(590.46 544.11)"><tspan x="0" y="0">YOU ARE ASSIGNED TO THE IN-BETWEEN.</tspan></text>
  </g>
  <g id="_line7" data-name="#line7">
    <text class="cls-4" transform="translate(590.46 568.16)"><tspan x="0" y="0">YOUR TASK: EXTRACT, DISASSEMBLE, REPURPOSE.</tspan></text>
  </g>
  <g id="_line8" data-name="#line8">
    <text class="cls-4" transform="translate(590.46 592.21)"><tspan x="0" y="0">CONVERT AIRCRAFTS INTO HOUSING MODULES.</tspan></text>
  </g>
  <g id="_line9" data-name="#line9">
    <text class="cls-4" transform="translate(590.46 615.43)"><tspan x="0" y="0">MAINTAIN THROUGHPUT. DO NOT FALL BEHIND!</tspan></text>
  </g>
</svg>